<svg id="レイヤー_3" data-name="レイヤー 3" xmlns="http://www.w3.org/2000/svg" viewBox="0 0 400 400"><defs><style>.cls-1{fill:#fff;}</style></defs><path class="cls-1" d="M199.61,324.15c.36.15.3-.13-.58-.72l-.8-.17Z"/><path class="cls-1" d="M194.23,319.48c-1.09-.59-2.42-1.21-1.95-.49,1.18.47,1.35.75,2.64,1.22.87.59,1.43,1.17,1.21,1.16a15.12,15.12,0,0,0,1.86,1.19,16.84,16.84,0,0,0-4-2.94C193.77,319.33,194.12,319.48,194.23,319.48Z"/><path class="cls-1" d="M111.18,258.5l.51.43A6.65,6.65,0,0,0,111.18,258.5Z"/><path class="cls-1" d="M91.91,211.15c-.14.46-.18.66-.15.7C91.87,211.41,92,211.05,91.91,211.15Z"/><path class="cls-1" d="M95.62,200.89l-.22.61A2.41,2.41,0,0,0,95.62,200.89Z"/><path class="cls-1" d="M111.18,258.5l-1.32-1.08C109.7,257.43,110.52,258,111.18,258.5Z"/><path class="cls-1" d="M182.27,311.78a7.4,7.4,0,0,0,.8.47l-.73-.48Z"/><path class="cls-1" d="M134.1,274.83l.42.3.43.15Z"/><path class="cls-1" d="M151.61,287.48a1.21,1.21,0,0,0-.92-.18,3.45,3.45,0,0,1,1,.47S151.69,287.64,151.61,287.48Z"/><path class="cls-1" d="M179,308l.52.33Z"/><path class="cls-1" d="M121.63,265.69a.32.32,0,0,0-.1-.19S121.56,265.6,121.63,265.69Z"/><path class="cls-1" d="M221,310s0,0,0,0S220.89,310.06,221,310Z"/><path class="cls-1" d="M200,323.55l.27-.22a.31.31,0,0,0,0-.17Z"/><path class="cls-1" d="M102.13,182l0,.08C102,182.62,102.05,182.34,102.13,182Z"/><path class="cls-1" d="M224.66,101.16c-2.08-.25,3.37-.32.25-.6C225.2,100.67,222.07,101,224.66,101.16Z"/><path class="cls-1" d="M181.84,311.42l-.72-.52C181.44,311.15,181.66,311.3,181.84,311.42Z"/><path class="cls-1" d="M224.91,100.56h0l-.32,0Z"/><path class="cls-1" d="M116.17,138.27a1.83,1.83,0,0,0-.26.41S116,138.58,116.17,138.27Z"/><path class="cls-1" d="M105.21,170.71l.3-.8C105.38,170.23,105.29,170.48,105.21,170.71Z"/><path class="cls-1" d="M121.29,121.24a8.72,8.72,0,0,0,.41-1.18,1.28,1.28,0,0,0-.1.17A4.14,4.14,0,0,1,121.29,121.24Z"/><path class="cls-1" d="M127,103.64l-.16.31-.17.56Z"/><path class="cls-1" d="M266.45,276.8a4.63,4.63,0,0,1-.84.3C266,277.09,263.8,278.74,266.45,276.8Z"/><path class="cls-1" d="M182.35,311.65a1.23,1.23,0,0,1-.51-.23l.5.35C182.41,311.77,182.45,311.74,182.35,311.65Z"/><path class="cls-1" d="M119.41,119.84l1-2.79C120.08,117.83,119.74,118.84,119.41,119.84Z"/><path class="cls-1" d="M297.41,172.5l.25.63A3.29,3.29,0,0,0,297.41,172.5Z"/><path class="cls-1" d="M123,108.74a15,15,0,0,0,.69-1.51,1.56,1.56,0,0,0,0-.35Z"/><path class="cls-1" d="M265.6,277.1s0,0,0,0S265.61,277.09,265.6,277.1Z"/><path class="cls-1" d="M250.33,289c2.27-1.64.85-1.07,1.2-1.59,2.65-2.05,1.42-.69,2.45-1.2,1.63-1.31,2.72-2.53,4-3.43.13,0,.39-.18.15.09,1.61-1.53,5.29-3.86,7.15-5.67a.86.86,0,0,1,.33-.12c-.45.09-.61,0-.62-.18,1-.74,1.75-1.56,2.27-1.64a3.19,3.19,0,0,0-.86.83l1-.85c1.16-.42-1.38,1.15-1.23,1.36,2-1.6,4.26-3.59,5.91-4.67.53,0-3.66,2.79-1.36,1.5l-2.53,1.68c2.19-.93-1.52,1.06.54.26,3.3-2.27,3.52-2.77,6.81-5,.62-.69-.4-.06.22-.74,4.39-3.61,4.11-1.93,7.22-4.75a9.83,9.83,0,0,1,3.37-3l-.6.91c3.16-2.25,1.47-1.75,4.91-3.92-.5.54-2.39,1.89-1.89,1.58,2.3-1.3,1.37-1.27,3-2.46l.54,0c3.31-2.47,6.84-5.34,10.5-8.07-.15.23-.72.77.21.23,2.28-1.76,4.78-3.56,7.28-5.31l3.73-2.57,3.75-2.54,1.27-1.09-.8-2c-.15-.47-.16-.91.06-.42-.57-2.09-.21-.05-.65-1-.4-1.17-.34-1.6,0-.89a131.61,131.61,0,0,1-4.83-14.12l.33.72c-.86-3-1.67-3.18-2.3-6l.22.51c-2-6.51-4.57-13.59-5.75-18.66-.71-.81-1.9-6.47-2.6-6.71-.92-3.78-.48-2.76-2-8-.43-1.4-1-2-1.65-3.66l.28-.13-1.06-2.24-.06-1.35-.59-1.59c.19.64.31,1.41.19,1.33a29.3,29.3,0,0,1-1.66-6.31L294,162.27a10.16,10.16,0,0,1,.85,1.84c-1.33-3.08.12-.68-1.1-3.5.06.41-.24-.16-.32-.21a68.8,68.8,0,0,0-2.24-7.24l.35.41c-1.38-4.44-3.12-9.29-4.73-14.26.48,1.81,0,1.52-.5.07l.12-.68c-.5-.88.37,1.56-.49-.29-.56-1.87-.05-1.36.4-.33l-.84-2.22c.05-.16.27.35.43.45-.49-.86-.95-4-1.72-5.22l0-.15c-1.61-5-2.45-7.18-3.78-11.21-.29,0-.74-1.6-1.35-2.73-.88-3-1.74-6.36-2.92-9.93-1-2.47-.47-.66-1-1.74.19-.26-1-3.83-.22-2l-1.5-4.47-2.44,0-1.66,0-4.36.15c.62.1,1.32.15,1,.23-1,0-2.36-.1-2.21-.23l.27,0c-6.41.38-14.79-.75-19.89-.22l.28,0-5.29.28c-2.44,0,1.46-.2-.34-.35-5.71.42-9-.07-13.72.22-3.64-.76-12.92,0-17.83-.43l.28.18a8.85,8.85,0,0,1-2.47-.15c.14.14,1.38.16.59.26-10.75.22-22.2-.26-33.22-.42-4,0-2.29.92-7.38.5l1.45-.33c-8.14.39-16.64,0-24.61.32a4.36,4.36,0,0,1,1.27-.18,25.74,25.74,0,0,0-6.26.19c-1.24,0-.28-.18-1-.28-1.69-.14-4.23.31-5.13.07-.15,0,.47-.08.78-.1-.46.05-1.43.05-2.32.06l-1.65,0a8.53,8.53,0,0,0-1.14.06c0,.14,0,.16,0,.05s.06,0,.22.06h-.18l-.62,1.79-.35,1.07-.61,2c-.39,1.28-.76,2.48-1.2,3.58-.18,1.57-1.72,4.82-1.46,5.43-.36-.35-2,4.87-2.35,6.73.07-.64-.64,1.52-.59.76-.66,2-1.19,4-.85,3.67-1.75,3.62-2.06,7.74-3.41,9.65-1.75,6.17-3.42,11.86-5.11,17.38-.36-.34,1.93-6.08,1.4-6-1.51,5.26-2.12,8.38-3.9,13.51-.49,1.31.06-.82.14-1.3-1.51,5.26-3.31,10-4.57,14.74a4.54,4.54,0,0,1,.2-1c-.28.91-.75,2.1-.52,2.06l.23-.91c.76-1.36-.58,3.81-.49,4-.05-1.73-1.62,4.53-1.53,1.84-.16.61-.31,1.39-.13,1.3-.33.88-.5,1.13-.35.18-1,3.3-.37,2.21-1.34,5.16-.09,0,.07-.65,0-1a33,33,0,0,1-1.49,5.6c0-.17-.18.09.06-.65-1.36,4.3-1.88,7.47-3.59,12.13,0-1.53-.66,1.55-1.09,1.69l-.72,2.56.5-1C92.08,206,91.7,208.08,91,210l.39-1.69-1.28,4.18.9-2.31c-.55,2.3.52-.1-.53,2.82.15-.61-.73,2.22-1.31,3.31h0A23.44,23.44,0,0,1,88,220.16c-.25.39-.28-.47-.44-.21-.06,1.17-1.61,5.22-1.74,6.69.08-.48-.1-.57-.19-.43l0,1c-.41,1-.5,1.14-.59.93-1,3.07.77-.84-.62,2.76a7.24,7.24,0,0,1,.15-.78c-.48,1.37-.91,2.71-1.31,4l-1.3,4.22,1.36,1,1.07.82c.32.46-.32,0-.95-.41l-.45-.31-.5-.34c-.26-.15-.35-.17,0,.15l1.75,1.23,1.63,1.11,3.28,2.21c2.19,1.47,4.35,2.95,6.33,4.45l-.73-.58c.87,0,2.84,2.38,5,3.66-.52-.33-.82-.24-.65-.19,2.7,2.07,5.7,4,10,6.88l-.59-.27c1.55,1.28,4.23,3.16,5.94,4.48.6.27,1.59,1,1.1.42,4.94,4.55,10.55,7.14,15,11.15-.58-.42-1.44-.9-1-.57l4.15,2.87c-.18-.42-.45-.5-1.2-1.27a19.36,19.36,0,0,1,2.82,1.75c-1.92-1.21-.2.31.52,1-.1-.15.22,0,.2-.13,1.89,1.88.63-.11,3.38,2.23l-.23,0c1.13.74,2.22,1.34,3.38,2.22.33.57-1.23-.74-1.44-.61,1.66,1.18,3.56,2,4.89,3.25-.74-.45-1.75-1.18-2.49-1.63a20.4,20.4,0,0,0,2.85,2.43l-.11-.09,2.71,2.14-.66-.58c2.47.93,4.28,2.95,7.33,4.6-3-1.61-.6-.12-1,0,.66.59,1.68,1.45,1.32,1.29,1.46.76,2.09,1.75,4.15,2.81,0,.14,1.4,1,1,1,1.76,1.18-.3-.43-.09-.42,2.83,1.64,6,4.83,10,7.21,3.38,2.22,4.17,2.4,7.3,4.47.94.87-1-.33-1-.33a38.54,38.54,0,0,0,4.44,3.24c-.36-.16-.08.14.33.57,1.26.89,1,.32,2.61,1.63a8.62,8.62,0,0,1-1.48-.59c1.52,1,3.08,1.91,4.66,2.94.3.43-1.07-.46-1.67-.76a40.75,40.75,0,0,0,5.21,3.27l-1-.88c.63.45.18.42-.31.13-1.59-.9-2.06-1.61-2.08-1.75l1.12.73c-.78-1.27-4.41-3.09-6.58-4.7l1.16.32-2.45-1.35c-.41-.43-.6-.85.52-.12-1.45-1.3-1.48-.89-2.69-2.05-.12-.14,0-.1.1,0l-1.6-1c.35.15-.08-.42.82.31-2.6-2.19-4.61-3-5.46-4l.25.14c-3.9-2.65-.55,0-3.62-1.8l-1.48-2-.55,0c-.39-.3-1.15-.88-.94-.88-1.58-.89.17.29-.79-.17-1.73-1.59-5.3-3.68-5.44-4.38-.81-.31,1.71,1.46-.41.12-.27-.84-2.38-1.62-4-3.07.69.16,2.24,1.47.65,0-1.31-.39-3.3-2.53-4.81-3.52-.28.25-3.26-2.18-5.78-3.86.23,0-4.48-3.5-6.68-5.26h.1c-.66,0-3-1.79-4.72-3,.2-.13.56,0,1.54.62l-1.61-1.17a12.21,12.21,0,0,1-2.05-1.21l.57.07c-2.15-1.54-4.5-2.87-7.14-5-.31.1,1.77,2.17-1.24.19,0-.19,0-.46.79,0a11.75,11.75,0,0,1-1.42-1l1.3.66c-1.19-1-.77-.32-1.76-1.06.14-.15-.66-.66-.42-.68a13.2,13.2,0,0,0,1.25.92,24,24,0,0,1-2.77-2.39c0,.17-.15.22-1-.36-2.15-1.54-.6-.73-1.79-1.71-.59-.27-1.87-1.38-2.08-1.16a2.92,2.92,0,0,1-.86-.9c-1.18-.69-5.19-3.72-4.13-2.56l.27.22-.18-.12h0c-3.8-2.4-7.44-5.61-11.12-8.12l.07-.08c-2.22-1.47-4.82-3.42-6.48-4.36-.64-.46-1.4-1.24-1.06-1.13a38,38,0,0,1-4.21-3c1.75,1.06-.48-.54,1.77,1.13A35.36,35.36,0,0,0,85.91,240c.47.19.11-.17-.49-.66-.3-.24-.67-.52-1-.77l-.5-.36-.22-.13.15.16a3,3,0,0,0,.3.28l.69.62-1-.73-.56-.42.31-.9a2,2,0,0,0,.07.34.48.48,0,0,0,.12.16l0-.09a.87.87,0,0,0,.06-.13l.17-.47.33-.92q.31-.92.57-1.8c.35-1.18.64-2.32.93-3.42a28.6,28.6,0,0,1,2.08-6.1c.22-1.43-1.06,2.74-.93,1.44.81-2.35,2.06-4.66,2.31-5.4,1.22-3.18.51-3.17,1.73-6.51-.25.39-.68.7,0-1.86.81-2.35,1.42-2.75,1-1.23-.18.57-.3.83-.33.8-.21.77-.49,1.79-.06.89l0-.34c.5-1.13,1.55-4.39,1.48-3.57.47-1.82.07-.82-.42.48,1.15-3,1.54-4.73,2.66-7.81-.22.47-.5.89-.34.39,1.63-4.53.44-2.08,1.4-5.2.74-1.71.21.77,1.08-2.4.73-1.87.43-.31.27.48a57.12,57.12,0,0,1,2.44-6.88l-.4,1.53c.24-.92.48-1.65.72-2.4l-.5.79a6,6,0,0,1,.66-1.57c.14-1-.6.57-.22-1.29.49-1.14,1-3.61,1.47-3.92-1.3,3.66.43-.31-.54,2.83a21.65,21.65,0,0,1,.73-2.22c.08-.12,0,.15,0,.39,1.41-3.44.19-1.73,1.38-5.38,0,.51.6-.75.76-1.36-.48,1.48-.51.62-.2-.78a33.42,33.42,0,0,0,1.14-3.8l-.52,1.38a19.57,19.57,0,0,1,.87-3.35c.18-.09-.39,1.52-.14.95.29-1.91,1.64-4,2.26-6.59.49-1.14.35,0,.76-1,.71-2.91,1.23-3,2-6-.5.79-.5,1,0-1.21L109,159.78l.69-3.25c-.48,1.47-.87,3.16-1.2,4,.31-1.56.31-1.39-.11-.74,1-1.92,1.11-4.08,2.1-6.34l.54.25c1.39-3.44,1.74-6.34,3.37-10.86l-.58,1.43a42.12,42.12,0,0,1,1.28-4.34c.14.2.51-.7.83-1.29-.16,0,1.1-3.34.86-3.88l.91-2c1.3-3.65.83-4.38,2-7.91-.15,1.14.51-.43-.11,2a8.89,8.89,0,0,0,.64-2.3c.34-.65.81-3.36,1.34-4.39a6.32,6.32,0,0,1,.39-2.08c.08-.13.09,0,.09,0s.55-2.12,0-1c1.77-3.45,3.27-10.2,4.81-13.21l1-3.29,1.92,0,2.15,0c-.16.06,0,.1-.47.08,3.4.18,2.09-.57,6-.36,2,.32-2.06.17-.82.29.53.65,4.67-.09,7.27.29l-.63,0c2,.22,4.86-.25,8.11-.2,0,0-.16.06,0,.1,2.23-.33,6.44-.44,9.57-.54-1,.26-1.42.14-.83.4,1.4,0-.41-.42,2.39-.49.91.14,2.93.26,3.2.54H163c1.35.36,3.42,0,4.81,0l-.18.16c4,0,4.1-.45,8.45-.42l-.45-.12c2.38-.39,2,.22,4.37-.07l.72.4c1.57-.1,5.49-.38,8.3-.46-1.59.29-4.88.44-6.92.62a54,54,0,0,0,6.1-.23,14,14,0,0,1-2,.08,48.92,48.92,0,0,1,7.52-.46c-.55.77,8.07.19,10.32.79,5.48-.28,10.88.12,17.26.07-2.26-.59,1.87,0,1.47-.62a14.55,14.55,0,0,1,2.19,0l4.51.36c1.07.18-1.41.14-1.28.27,3.26,0,1.37.26,3.52.43-.44-.22,1.14-.32,3-.23L232,101.1c4.55-.32,3.93.52,8.52.19l-1.45.2c2.35-.12,8.68,0,11-.49.42.07,1,.24-.07.28,5.63.08,12.52-.52,16.9-.22l-.43.15a16.39,16.39,0,0,1,3.14-.13c-.07.06-.42.15.07.16l1.17-.1.42,0h.2l.07,0,.33,0a2.54,2.54,0,0,1,.13.44.64.64,0,0,0-.26-.25l.05.24c.08.27.17.53.25.79.18.59.37,1.14.56,1.66.37,1.06.75,2,1.12,2.94.75,1.86,1.5,3.59,2.26,5.77-.42.12.78,4.27,1.38,6.34l-.09,0c1.93,6.1,3.71,10.21,5.7,15.79.68,3.64,3.65,11.89,5.22,17.59-.2-.88.37,0,.74,1,.34,1.34,1.47,3.55,1,3.46l-.14-.47c-.06,1.11.92,3.79,1.6,5.91l.62.18c1.06,5.77,5,14.41,5.3,17.64.56,1.29,1.09,2.94,1.65,4.23h-.29c1.13,3.72,1.7,5.58,3.24,10.13l-.49-.87c.82,2.58,1.83,3,2.62,5.38l-.17.84c1.47,4.5,2.6,9.16,4.4,13.49-.08,0-.24-.15-.49-.87.68,2.12,2.39,8.28,2.69,7.33-.34.17,1.47,4.65,2.42,7l-.39-.29a26.38,26.38,0,0,1,2.15,4.8c.18.69,0,.67-.25-.26.6,2.31.83,1.68,1.57,4.47l-.5-1a18.72,18.72,0,0,0,.74,2.09c.09.2.17.36.27.54a1.63,1.63,0,0,0,.15.25l.16.27.15.36-.79.57-1.16.75a5.78,5.78,0,0,1-1.57.8,9.39,9.39,0,0,1-2.35,2.06c-.21,0,.18-.32.37-.5-3.42,2.25-4.73,3.84-7.16,5.27-.1,0-.28,0-.48.15,2.63-1.91,4.75-3.43,4.57-3.27-.15-.21-2.3,1.3-.82-.22a67,67,0,0,1-6.4,5.26l-.33.13.2-.18a13.31,13.31,0,0,0-1.28,1c-.69.45-1.13.73-1.76,1.19a25.76,25.76,0,0,0-3.57,2.43c.25.17-1.16,1.14.28.38-.18.11.18-.17.87-.69.16-.12.34-.26.44-.35l-.06.07,2.62-1.93a13.54,13.54,0,0,1-2.82,2.18c-.43.54-.92,1.13-1.21,1.44-1.68.74-4.6,2.6-5.13,2.68-3.14,2.48-7.55,5.62-9.27,7.52a3.75,3.75,0,0,1-1.54.83c.5-.43,1.13-.88,1.38-1.15-1.76,1.44-5.42,4-5.64,4.62-2.41,1.54,1.1-1.22-2,1.14l.36-.41c-6.61,4.07-9.63,8.16-17,12.59a4.29,4.29,0,0,1,.89-.49c-8.11,5.48-16.12,12.1-24.24,17.35a20.21,20.21,0,0,0-3.63,3l-.66.1-2.11,2c-3.14,2.59-6.13,3.53-10,6.94l.65-.22c-1.51,1.05-4.66,3.53-4.54,3.16a3.11,3.11,0,0,1-1,.87l-.13-.1-3.51,2.89c-2.91,2,.07-.83-4.1,2.16-1.5,1.17-4.12,3.56-3.48,3.22a5.71,5.71,0,0,1,1.79-1l-1.36,1.09c0,.57-.79,1.74,2.87-.51l2.24-2,.91-.38-2,1.49a10.47,10.47,0,0,0,2.64-2.05,3.7,3.7,0,0,0,1.16-.53l2.11-2.08c.39-.06-.85,1.06.79,0,1-1-1.3.44.46-1a6,6,0,0,0,2.29-1.42c.26,0,0,.23-.49.66,1.12-1,3.16-2.36,3.64-3,1.35-.66,4-3,4.17-2.57a31.25,31.25,0,0,1,3-2.64c-1.72,1.9,4.16-3,4-2.14,1.22-1.48,5.29-4.11,7.79-6.25a3.52,3.52,0,0,1-.62.57c1.51-1.06,2-1.26,3-1.88,0-.46,2.24-2.22,3.35-3.33,2.05-1-.84,1.18,0,1.06-.28-.19,3-2.57,2.21-2.33a8,8,0,0,1,2.19-1.05c0-.57,1.25-1,2.24-2.1,2.16-1.27.79,0,2.93-1.74C252.2,287.44,250.33,289,250.33,289Zm52.43-39.14h0l-1.08.81Zm4.45-3.24L305.27,248c-.21,0-.1-.17.35-.49C305.41,247.77,306.5,247.06,307.21,246.64Zm-10.56,5.26a3.16,3.16,0,0,1,1.08-.69l-1.21.92-.06.09A.86.86,0,0,1,296.65,251.9Z"/><path class="cls-1" d="M295.6,253.12l-.27.23.45-.26.2-.25Z"/><path class="cls-1" d="M111.78,259l-.09-.07a1.52,1.52,0,0,1,.18.17Z"/><polygon class="cls-1" points="299.44 178.28 299.37 178.31 299.58 178.74 299.44 178.28"/><path class="cls-1" d="M135.72,277.58a1.38,1.38,0,0,0,.27.29A2.13,2.13,0,0,0,135.72,277.58Z"/><path class="cls-1" d="M146.26,285.32l1.44,1.17C147.09,286,146.63,285.61,146.26,285.32Z"/><path class="cls-1" d="M154.32,291.34a.39.39,0,0,0,.23,0h-.23Z"/><path class="cls-1" d="M103.21,170.79l.11-.38C103.55,169.53,103.38,170.13,103.21,170.79Z"/><path class="cls-1" d="M89.13,216.25c.1-.5.21-1,.34-1.5C89.19,215.55,89,216.18,89.13,216.25Z"/><path class="cls-1" d="M119.31,120.14h0l.1-.31Z"/><path class="cls-1" d="M90.16,212.65a19.54,19.54,0,0,0-.69,2.1A21.48,21.48,0,0,0,90.16,212.65Z"/><path class="cls-1" d="M189.51,317.07l.38.3s0,0,.08,0Z"/><path class="cls-1" d="M190,317.36l.45.29A2.53,2.53,0,0,0,190,317.36Z"/><path class="cls-1" d="M191.38,318.26l-1-.61A5,5,0,0,0,191.38,318.26Z"/><path class="cls-1" d="M178.81,309.14h-.18C178.71,309.16,178.77,309.17,178.81,309.14Z"/><path class="cls-1" d="M175.52,306.79c.77.58,1.83,1.59,3,2.33h.15C178,308.88,176.37,307.18,175.52,306.79Z"/><path class="cls-1" d="M162.6,295.84l2.7,2.06c-.42-.44-1-1,.3-.13C162.33,295,166.17,298.49,162.6,295.84Z"/><path class="cls-1" d="M154.19,289.53c1.5,1,.07-.14.19-.13C153.38,288.8,153.14,288.66,154.19,289.53Z"/><path class="cls-1" d="M92.72,244.88l.3-.1C91.87,244,93,244.85,92.72,244.88Z"/><path class="cls-1" d="M82.5,235.82l-.29.63c-.09.2-.18.38-.33.75s0,.62,0,.89Z"/><polygon class="cls-1" points="86.88 228.22 86.73 228.82 87.36 226.56 86.88 228.22"/><path class="cls-1" d="M126.22,106.85l-.43.3C125.55,108.07,125.83,108.37,126.22,106.85Z"/><path class="cls-1" d="M175.57,100.73a9.68,9.68,0,0,0,3.1.1C177.44,100.81,176.2,100.69,175.57,100.73Z"/><polygon class="cls-1" points="292.52 165.16 292.08 164.14 292.81 166.1 292.52 165.16"/><path class="cls-1" d="M199.37,323.4c-.11.62.18.35.67-1.29l.06-1.25Z"/><path class="cls-1" d="M203.5,312.68c.46-1.95.91-4.24.22-3.1-.31,2-.59,2.4-.89,4.55-.49,1.64-1,2.8-1.05,2.49-.1.6-.88,2.5-1,3.44a44.27,44.27,0,0,0,2.51-7.56C203.59,311.92,203.48,312.53,203.5,312.68Z"/><path class="cls-1" d="M255.5,154.29l-.36,1C255.25,155,255.37,154.68,255.5,154.29Z"/><path class="cls-1" d="M234.77,126.73a4.68,4.68,0,0,0,.89-.74C235.08,126.44,234.61,126.81,234.77,126.73Z"/><path class="cls-1" d="M220.29,136.8l.85-.59A5.31,5.31,0,0,0,220.29,136.8Z"/><path class="cls-1" d="M255.5,154.29l1-2.6A14.15,14.15,0,0,0,255.5,154.29Z"/><path class="cls-1" d="M209.84,290.57c-.16.56-.28,1-.38,1.45l.4-1.35A.25.25,0,0,1,209.84,290.57Z"/><path class="cls-1" d="M241.69,197.68l-.26.79c0,.25-.07.48-.09.71Z"/><path class="cls-1" d="M230.94,230.93a2.59,2.59,0,0,0,.05-1.43,8.57,8.57,0,0,1-.35,1.7C230.69,231.23,230.78,231.15,230.94,230.93Z"/><path class="cls-1" d="M213.34,283.47l-.26.95Z"/><path class="cls-1" d="M249.48,173.91a1,1,0,0,0,.19-.28S249.57,173.73,249.48,173.91Z"/><path class="cls-1" d="M188.74,284.68s0,0-.05,0C188.78,284.88,188.82,284.93,188.74,284.68Z"/><path class="cls-1" d="M199.93,323.63l-.19-.53c-.07,0-.13-.08-.18-.06Z"/><path class="cls-1" d="M194,155.48l.12-.08C194.75,154.87,194.36,155.16,194,155.48Z"/><path class="cls-1" d="M239.89,239.36c-3.35-.25,5.47-.32.41-.6C240.77,238.87,235.71,239.2,239.89,239.36Z"/><path class="cls-1" d="M210.16,289.72l.44-1.36C210.38,289,210.25,289.4,210.16,289.72Z"/><path class="cls-1" d="M240.3,238.76h0l-.52,0Z"/><path class="cls-1" d="M133.9,199.33a5.61,5.61,0,0,0,.68-.35A2.49,2.49,0,0,0,133.9,199.33Z"/><path class="cls-1" d="M179,167.09l-1.13.77C178.28,167.56,178.64,167.31,179,167.09Z"/><path class="cls-1" d="M110.86,216.56a19.68,19.68,0,0,0-1.65,1.16l.27-.15A11.06,11.06,0,0,1,110.86,216.56Z"/><path class="cls-1" d="M86.64,234.16l.48-.28.76-.57Z"/><path class="cls-1" d="M160.49,198.18a9.69,9.69,0,0,1,.19,1.39C160.72,199.07,162.15,203.23,160.49,198.18Z"/><path class="cls-1" d="M210,290.61a2.52,2.52,0,0,1,.16-.89l-.3.95C209.87,290.77,209.91,290.8,210,290.61Z"/><path class="cls-1" d="M111.18,219.07l-3.88,2.76C108.4,221.07,109.8,220.06,111.18,219.07Z"/><path class="cls-1" d="M216.62,166.27l-.91-.61A9.62,9.62,0,0,0,216.62,166.27Z"/><path class="cls-1" d="M95.91,230.16c-.75.42-1.51.9-2.28,1.42a5.51,5.51,0,0,0-.41.38Z"/><path class="cls-1" d="M160.68,199.58h0Z"/><path class="cls-1" d="M171,229.18c-1.4-4.32-1-1.92-1.51-2.77-1.77-5.11-.51-2.46-.9-4.27-1.14-3.18-2.26-5.54-3-7.94,0-.2-.14-.67.11-.15-1.38-3.31-3.28-10.08-4.92-13.92a2.49,2.49,0,0,1-.08-.55c0,.7-.12.86-.29.77A26.94,26.94,0,0,1,159,196a8.72,8.72,0,0,0,.75,1.79l-.75-2c-.27-1.93,1,2.72,1.25,2.64-1.39-3.91-3.16-8.42-4.05-11.48.12-.74,2.41,7,1.39,2.91l1.39,4.72c-.65-3.74.89,2.86.37-.61-1.91-6.19-2.4-6.83-4.31-13-.62-1.33-.11.54-.74-.78-3.16-8.63-1.42-7.14-3.94-13.42a25.14,25.14,0,0,1-2.64-6.75l.87,1.44c-1.9-6-1.63-3.24-3.42-9.56.51,1.06,1.65,4.65,1.4,3.73-1-4.14-1.14-2.8-2.15-5.91l.11-.75-7-20.26c.22.35.71,1.53.28-.15-1.52-4.41-3-9.15-4.52-13.86l-2.16-7c-.35-1.14-.69-2.28-1-3.4a3,3,0,0,1-.07-.47c-.09-.14-.2-.32-.32-.53s.07-.09.18-.08c.24.18.4.46.28.44.29.28.29.22.28.12s-.16-.33.12-.21l.26.2.43.33a6.3,6.3,0,0,1,.51.45c.17.2,0,.16-.54-.17,5.15,3.43,14.58,9.92,19.67,14l-1.08-.68c4,3.08,5,2.88,8.63,5.87l-.76-.49c8.84,6.58,18.85,13.52,25.39,18.82,1.54.6,8.71,6.56,9.63,6.5,4.92,3.94,3.4,3,10.45,8.33,1.9,1.41,3.07,1.77,5.47,3.44l-.12.29,3.4,2.08,1.5,1.54,2.26,1.55c-.87-.66-1.8-1.48-1.61-1.45,1.78,1.2,3.86,2.78,5.49,4.08a26.35,26.35,0,0,1,2.83,2.42l8.36,5.75a25.66,25.66,0,0,1-2.79-1.72c4.57,2.93.61.84,4.79,3.52-.5-.45.4.06.52.08,1.9,1.6,6.45,4.91,9.86,7.3l-.77-.3c6.05,4.47,12.89,9.24,19.72,14.2-2.39-1.86-1.62-1.75.41-.32l.61.85c1.41.77-2-1.62.78.11,2.53,1.88,1.49,1.54,0,.56l3.17,2.17c.12.21-.64-.28-.9-.32,1.39.76,5.16,4.16,7.2,5.21l.12.2c6.83,5,10,7.12,15.56,11.15.27-.15,2.41,1.48,4.2,2.5,4,3,8.44,6.52,13.38,10.08,3.54,2.4,1.15.54,2.81,1.53.1.39,5,4,2.37,2.24l1.52,1.08.66.45-1.68.07-7.05.15c1,.1,2.13.15,1.55.23-1.68.05-3.82-.1-3.58-.23l.44,0c-10.37.38-23.93-.75-32.19-.22l.46,0-8.56.28c-3.94-.05,2.36-.2-.55-.35-9.24.42-14.6-.07-22.2.22-5.89-.76-20.9.05-28.85-.43l.46.18a23.07,23.07,0,0,1-4-.15c.22.14,2.23.16,1,.26-17.41.21-35.92-.26-53.76-.42-6.53-.05-3.71.92-11.93.5l2.33-.33c-13.16.39-26.92,0-39.81.32a11.19,11.19,0,0,1,2-.18c-1.37-.12-3.88-.12-6.06-.07a24.66,24.66,0,0,0-4.06.26c-2,0-.46-.18-1.7-.28-2.73-.14-6.86.31-8.31.07a5.65,5.65,0,0,1,1.27-.1c-.37,0-1,0-1.62,0h-.47a3.78,3.78,0,0,0-.72.08l-.15.05a.53.53,0,0,0-.13.06h0c.35-.22.58-.38.81-.55l1.77-1.33c1.74-1.29,3.38-2.51,5-3.56,1.85-1.73,6.78-4.75,7.17-5.57,0,.56,7.08-4.7,9.43-6.67-.75.72,2.24-1.44,1.38-.59,2.82-2.05,5.36-4,4.73-3.83,5.52-3.34,10.2-7.95,13.54-9.52,8.24-6.29,15.91-12.07,23.39-17.64,0,.57-8.31,6.1-7.71,6.25,7.05-5.35,10.95-8.67,18.12-13.74,1.87-1.28-.93.92-1.51,1.43,7.05-5.34,13.86-10,20.08-14.83,0,0-.66.58-1.28,1.08,1.24-.93,2.95-2.07,2.69-2.13l-1.19.93c-2.18,1.22,4.62-4.12,4.75-4.41-1.79,2,6.37-4.45,3.43-1.39.8-.63,1.78-1.46,1.51-1.44,1.25-.85,1.68-1.07.53,0,4.43-3.36,2.7-2.37,6.78-5.33,0,.09-.76.72-1.11,1.12a87.23,87.23,0,0,1,7.39-5.74c-.17.19.28,0-.75.71,5.89-4.31,9.77-7.73,16.36-12.29-1.66,1.74,2.29-1.49,2.85-1.43l3.42-2.62-1.51.86c3.06-2.21,5.6-4.39,8.29-6.2l-2.17,1.78,5.67-4.22-3.32,2.24c3-2.4-.61-.14,3.52-3-.8.63,3.06-2.21,4.78-3.19h0a59.14,59.14,0,0,1,5.23-4c.66-.33-.23.67.2.46,1.3-1.33,7.1-5.26,8.79-6.9-.58.52-.5.7-.27.58l1.1-1.11c1.46-1,1.69-1.08,1.55-.79,4.28-3-1.63.6,3.54-2.9-.38.3-.17.19-1,.82,1.92-1.34,3.75-2.69,5.55-4l4.22-3.15c-.32,1-.67,2-1,3-.72,1,.84-2.89,0-1.32-1,3.35-2.05,6.82-3.09,10.26-1.22,4.08-2.46,8.13-3.75,11.94l.51-1.41c.16,1.22-2.1,5.61-3.12,9.55.27-1,.12-1.33.1-1.06-1.79,5.21-3.36,10.74-5.77,18.72l.18-1c-1.11,3-2.7,8.1-3.84,11.41-.19,1-.83,2.93-.27,1.83-4.08,10-6,19.73-9.55,28.64.35-1.09.73-2.63.45-1.76l-2.4,7.8a14.07,14.07,0,0,0,1.16-2.55,53.37,53.37,0,0,1-1.42,5.17c1-3.54-.37-.08-1,1.39.15-.24.06.31.17.2-1.71,3.93.22.82-1.84,6.28l0-.34c-.62,2.1-1.09,4.05-1.85,6.28-.55.84.6-2.25.44-2.46-1,3.15-1.53,6.35-2.71,9.11.39-1.34,1-3.28,1.35-4.63a53.52,53.52,0,0,0-2.14,5.67l.08-.23-1.86,5.27.52-1.32c-.61,4.14-2.48,8-3.76,13.47,1.26-5.28,0-.93-.12-1.42-.52,1.33-1.28,3.35-1.17,2.74-.58,2.58-1.54,4.12-2.35,7.75-.14.13-.88,2.68-.93,2-1,3.27.42-.72.44-.41-1.31,5.12-4.21,11.66-6.12,19-1.84,6.27-1.9,7.52-3.62,13.34-.78,1.9.18-1.7.18-1.7-1.15,3.1-1.9,5.47-2.75,8.46.11-.62-.16,0-.56.84-.74,2.38-.17,1.7-1.33,4.79a20.41,20.41,0,0,1,.4-2.5c-.8,2.84-1.58,5.64-2.41,8.58-.41.71.33-1.83.55-2.89-1,3.28-2.59,8.49-2.66,9.58l.77-2.06c-.38,1.19-.42.54-.18-.35.7-2.86,1.39-4,1.54-4.13l-.61,2.08c1.23-1.94,2.6-8.31,4-12.46l-.16,1.86,1.05-4.36c.4-.88.82-1.43.21.65,1.17-2.92.72-2.69,1.77-5.17.13-.28.1-.14,0,.12l.83-2.94c-.1.59.44-.4-.2,1.37,1.93-5.15,2.44-8.52,3.38-10.39l-.12.45c2.22-7.29-.06-.8,1.36-6.34l1.91-3.43-.06-.81c.25-.74.76-2.21.78-1.9.71-2.85-.28.43.06-1.24,1.43-3.52,3.1-10,3.83-10.63.2-1.36-1.29,3.39-.2-.5.86-.94,1.36-4.47,2.66-7.68-.07,1.09-1.22,4.16.08.94.21-2.12,2.17-6.37,3-9.17-.3-.24,1.81-6.07,3.21-10.76,0,.33,3-8.7,4.57-13v.14c-.07-.95,1.44-5.39,2.43-8.67.16.2.06.81-.42,2.6l1-3.06a29.19,29.19,0,0,1,1-3.72v.85c1.31-4.07,2.35-8.29,4.23-13.47-.15-.37-2,4-.4-1.64.2-.16.49-.3.08,1.17.13-.48.44-1.73.8-2.66l-.49,2.28c.87-2.35.22-1.31.86-3.21.17.1.59-1.36.65-1-.14.49-.62,1.63-.78,2.39a57.66,57.66,0,0,1,2.11-5.51c-.17.15-.26-.09.23-1.67,1.31-4.07.68-1.32,1.55-3.66.18-1,1.16-3.58.9-3.74A7.7,7.7,0,0,1,253,163c.56-2.14,3.16-9.84,2.09-7.57l-.19.54.1-.35h0c2-7,4.81-14.29,6.92-21.17l.09,0c1.22-4.12,2.89-9.12,3.64-12.1.39-1.21,1.09-2.8,1-2.25.94-3.14.95-3.53,2.57-8-.86,3.2.5-1-.92,3.26a87.74,87.74,0,0,0,3-9.35c-.11.78.2.06.64-1.15.63-1.82,1.46-4.39,1.88-5.79l-1.63,4.41c.61-1.89,1.17-3.63,1.72-5.32l-2.66,1.9c.5-.5,1.07-1.05,1.69-1.64-1.37.94-2.82,2-4.25,3l-1.55,1.12-1.21.9c-1.59,1.2-3.08,2.38-4.53,3.52a76.27,76.27,0,0,1-8.48,6c-1.74,1.54,3.93-2.66,2.42-1.23-3.28,2.33-7,4.4-8,5.14-4.56,3.09-3.86,3.41-8.6,6.7.67-.34,1.42-.49-2,2.13-3.28,2.33-4.29,2.5-2.29.93.77-.57,1.17-.82,1.16-.76,1-.8,2.38-1.84,1-1l-.35.4c-1.69,1.08-6.15,4.34-5.22,3.42-2.39,1.88-.93.92.92-.35-4.27,2.89-6.52,4.73-10.88,7.76.72-.45,1.43-.79.75-.3-6.38,4.46-2.64,2.2-6.88,5.34-2.53,1.62.62-1-3.59,2.26-2.69,1.81-.74.15.25-.68-3.78,3-7.41,5.19-9.67,6.78l2-1.58c-1.2.95-2.21,1.68-3.24,2.42l1.32-.66a15.82,15.82,0,0,1-2.3,1.5c-1.15,1,1.19-.38-1.16,1.59-1.69,1.08-4.84,3.68-5.58,3.83,5.14-3.6-.75.15,3.52-3-.81.63-1.82,1.36-3.06,2.21-.2.1.13-.18.45-.43-5,3.3-2,1.91-7.06,5.56.54-.61-1.36.57-2.16,1.2,2-1.47,1.14-.46-.64,1-3.31,2.23-3.45,2.63-5.15,3.85l2-1.35a50.34,50.34,0,0,1-4.39,3.45c-.28,0,2-1.56,1.15-1-2.32,2.07-5.84,3.84-9.2,6.54-1.68,1.08-.35-.15-1.82.81-3.77,3-4.37,2.87-8.36,6,1.32-.67,1.5-.86-1.26,1.42l6.65-5-4.12,3.42c2-1.47,4.2-3.24,5.45-4.09-2,1.65-1.77,1.45-.68.9-3,1.74-5.4,4.18-8.77,6.33l-.25-.55c-5,3.3-8.42,6.49-14.79,10.94l2.08-1.38c-.71.8-3.86,2.84-5.84,4.4.07-.3-1.25.57-2.19,1.1.19,0-4.61,3.33-5,4.07l-3,1.83c-5.13,3.6-5.46,4.66-10.38,8.15,1.35-1.24-1,.26,2.23-2.24a24.18,24.18,0,0,0-3.07,2.34c-1,.6-4.36,3.5-6,4.44a15.25,15.25,0,0,1-2.57,2.21c-.23.12,0-.08,0-.08s-2.79,2.19-1.06,1.2c-5.38,3.15-14,10.23-18.68,13l-6.71,5,9.39-.06c-.26.06,0,.1-.77.08,5.5.18,3.38-.57,9.65-.36,3.19.31-3.33.17-1.34.29.87.65,7.56-.09,11.78.29l-1,0c3.22.22,7.86-.25,13.12-.2,0,0-.26.06,0,.1,3.6-.33,10.41-.44,15.48-.54-1.58.26-2.3.14-1.34.4,2.27,0-.67-.42,3.86-.49,1.48.14,4.75.26,5.18.54H140.1c2.18.36,5.53,0,7.78,0l-.29.16c6.55,0,6.64-.45,13.68-.42l-.73-.12c3.85-.39,3.23.22,7.07-.07l1.16.4c2.53-.1,8.89-.38,13.44-.46-2.58.29-7.91.44-11.2.62,2.51,0,8.55,0,9.86-.23-1,0-2.29.14-3.29.08q4.62-.47,12.16-.46c-.89.77,13.07.19,16.7.79,8.87-.28,17.6.12,27.93.07-3.66-.59,3,0,2.38-.62,2.41,0,3.33,0,3.54,0l7.3.36c1.73.18-2.29.14-2.07.27,5.27.05,2.21.26,5.7.43-.72-.22,1.83-.32,4.83-.23l-4.23-.29c7.37-.32,6.37.52,13.79.19l-2.35.2c3.81-.12,14.06,0,17.79-.49.67.07,1.56.24-.11.28,9.1.08,20.26-.52,27.34-.22l-.7.15a43.36,43.36,0,0,1,5.15-.13,2.26,2.26,0,0,0-.35.1s0,0,0,0a2.83,2.83,0,0,0,.5,0l3.24-.1,4.64-.09c-1-.69-1.85-1.34-2.6-1.91l3.1,2-4.44-3.27-3.44-2.48c-1.48-1-2.86-2-4.21-2.85-2.69-1.79-5.26-3.43-8.3-5.58.27-.35-5.3-4.57-8.08-6.68l.14,0c-8.33-6.12-14.42-10-22.27-15.51-4.53-3.88-16.17-12-23.74-17.83,1.13.92-.4.14-1.8-.82-1.76-1.39-5.19-3.4-4.66-3.52l.64.48c-1.14-1.31-4.93-3.94-7.83-6.06l-.79.08c-7.16-6.15-20.11-14.26-23.86-17.84-1.91-1.22-4.19-2.88-6.09-4.1l.27-.15c-5.05-3.76-7.57-5.63-13.9-10.15l1.4.77c-3.54-2.6-5-2.6-8.24-5l-.74-1.06c-6.19-4.49-12.24-9.34-18.58-13.48.13,0,.39.06,1.4.77-2.91-2.12-11.1-8.42-10.39-7.18.15-.36-6.36-4.67-9.8-7l.68.15a67.67,67.67,0,0,1-7.17-4.53c-.92-.71-.69-.78.51.18-3-2.38-2.58-1.55-6.27-4.41l1.51.88c-1.38-1-2.9-2.1-3.62-2.57s-1.3-.79-2.33-1.4l-.89-.62c.57,1.68,1.17,3.64,1.7,5.45l.19.67.13.5.19.82a4.75,4.75,0,0,1,.16,1,24.24,24.24,0,0,1,1.82,4.7c0,.33-.31-.46-.47-.86,1.87,6.36,3.35,9.26,4.5,13.67a1.62,1.62,0,0,0,.08.79c-1.62-5-2.91-9-2.77-8.67-.25.08,1,4.14-.36,1,1.24,3.19,3.44,8.6,4.6,12.57a4.79,4.79,0,0,1,.09.55l-.16-.4c.27.92.56,1.72.85,2.48.37,1.27.59,2.07,1,3.28-.05.53,1.4,4.67,2,6.69.22-.26,1,2.39.45-.15a8.35,8.35,0,0,1-.6-1.7c-.11-.3-.23-.66-.31-.85l.07.13-1.65-5a34.88,34.88,0,0,1,1.89,5.44c.5,1,1.05,2.06,1.34,2.67.52,2.88,2.05,8.26,2.06,9.07,2.15,6.1,4.8,14.46,6.56,18.16a9.75,9.75,0,0,1,.64,2.73c-.37-1-.76-2.19-1-2.71,1.27,3.45,3.42,10.34,4,11.06,1.27,4.45-1.13-2.37.9,3.66l-.37-.78c3.3,12.09,7.18,19.07,10.75,32.51a10.63,10.63,0,0,1-.38-1.6c4.57,15.15,10.38,30.92,14.7,45.94a53,53,0,0,0,2.65,7.16v1l1.76,4.3c2.28,6.16,2.81,11,5.84,18.8l-.14-1.08c.89,2.85,3,9,2.66,8.56a7.61,7.61,0,0,1,.77,2l-.12.13,2.52,6.9c1.65,5.44-.87-.65,1.67,7.25,1,2.91,3.15,8.21,2.89,7.08a14.06,14.06,0,0,1-.77-3.2l1,2.66c.6.35,1.73,2.26-.1-4.43l-1.77-4.5-.26-1.55,1.27,3.86a26.87,26.87,0,0,0-1.77-5.1,9.65,9.65,0,0,0-.39-2L194.83,305c0-.61,1,1.91.12-1.15-.89-2.05.27,2.15-1-1.3a15.29,15.29,0,0,0-1.15-4.2c0-.4.25.13.63,1.13-.88-2.25-2-6.05-2.65-7.16-.5-2.37-2.58-7.73-2.09-7.64-.33-.68-1.64-3.93-2.34-6,1.75,3.69-2.54-7.9-1.67-7.06-1.38-2.7-3.54-10.22-5.43-15.19a9,9,0,0,1,.5,1.25c-.89-2.85-1-3.72-1.53-5.57-.49-.25-2-4.64-3-7-.77-3.6,1.13,2,1.12.76-.25.28-2.27-6-2.14-4.68a19.7,19.7,0,0,1-.77-3.8c-.62-.32-.88-2.46-1.89-4.57-1-3.93.12-1.14-1.4-5.32C169.61,225.46,171,229.18,171,229.18ZM137.47,128.75h0l.69,2.07Zm-2.75-8.46L135.9,124c0,.32-.19,0-.46-.82A22.59,22.59,0,0,0,134.72,120.29Zm4,18.5a8.83,8.83,0,0,1-.57-2c.22.63.47,1.36.8,2.33l.08.15A2.21,2.21,0,0,1,138.68,138.79Z"/><path class="cls-1" d="M139.82,141.09l.2.54-.2-.82-.24-.44Z"/><path class="cls-1" d="M255.07,155.47l.07-.17-.16.36C255,155.54,255,155.55,255.07,155.47Z"/><polygon class="cls-1" points="208.52 160.56 208.55 160.5 207.88 160.09 208.52 160.56"/><path class="cls-1" d="M239,201.78a4.11,4.11,0,0,0-.27.59A4.85,4.85,0,0,0,239,201.78Z"/><path class="cls-1" d="M232.41,221.89l-1,2.81Z"/><path class="cls-1" d="M227.25,237.32a.72.72,0,0,0,0,.34v0Z"/><path class="cls-1" d="M181,168l-.5.38C179.31,169.24,180.1,168.63,181,168Z"/><path class="cls-1" d="M242.88,122.16c-.63.52-1.26,1-1.93,1.56C242.07,122.93,242.94,122.31,242.88,122.16Z"/><path class="cls-1" d="M111.6,218.76h0l-.43.32Z"/><path class="cls-1" d="M238.05,125.82c1.14-.76,2.06-1.44,2.9-2.1C240,124.36,238.94,125.12,238.05,125.82Z"/><path class="cls-1" d="M205.33,304.36l-.25.75s0,0,0,.1Z"/><path class="cls-1" d="M205.09,305.21l-.24.84A5.16,5.16,0,0,0,205.09,305.21Z"/><path class="cls-1" d="M204.36,307.81l.49-1.76A12.77,12.77,0,0,0,204.36,307.81Z"/><path class="cls-1" d="M212.11,283.91l0-.26C212.07,283.78,212.07,283.88,212.11,283.91Z"/><path class="cls-1" d="M214.11,277.68c-.51,1.48-1.42,3.66-2,5.75v.22C212.26,282.63,213.81,279.14,214.11,277.68Z"/><path class="cls-1" d="M223.75,252.08,222,257.27c.4-.88.93-2,.18.35C224.6,251.14,221.49,258.9,223.75,252.08Z"/><path class="cls-1" d="M229.16,236c-.87,2.82.16,0,.17.18C229.81,234.33,229.93,233.89,229.16,236Z"/><path class="cls-1" d="M267.14,119l.16.36C268,117.23,267.21,119.35,267.14,119Z"/><path class="cls-1" d="M269.63,103c.35-.18.63-.32.86-.42.22-.26.49-.55.8-.88Z"/><polygon class="cls-1" points="257.77 109.4 258.55 108.79 255.54 111.09 257.77 109.4"/><path class="cls-1" d="M90.8,230.82l.74-.14C92.75,229.73,92.8,229.25,90.8,230.82Z"/><path class="cls-1" d="M160.47,238.93a25.25,25.25,0,0,0,5,.1C163.49,239,161.49,238.89,160.47,238.93Z"/><polygon class="cls-1" points="229.13 172.41 230.64 173.38 227.85 171.46 229.13 172.41"/><path class="cls-1" d="M200.39,305c-.17,0-.22.19.13.39l.43-.1Z"/><path class="cls-1" d="M202.22,307.12c.48.15,1.09.25,1-.18-.57,0-.58-.19-1.21-.18-.35-.21-.51-.5-.38-.56-.17,0-.47-.43-.76-.39a2.51,2.51,0,0,0,1.49,1.15C202.45,307.11,202.29,307.1,202.22,307.12Z"/><path class="cls-1" d="M233.76,330.68l-.18-.18Z"/><path class="cls-1" d="M240.91,348.41c.05-.18,0-.26,0-.28C240.89,348.3,240.87,348.44,240.91,348.41Z"/><path class="cls-1" d="M239.28,352.26l.09-.23A.42.42,0,0,0,239.28,352.26Z"/><path class="cls-1" d="M233.76,330.68l.47.46C234.33,331.08,234,330.88,233.76,330.68Z"/><path class="cls-1" d="M207.08,309.67a1.36,1.36,0,0,0-.34-.14l.29.17Z"/><path class="cls-1" d="M224.91,324.57l-.16-.11h-.22Z"/><path class="cls-1" d="M218.2,319.77c.15.12.36-.07.49-.13a.64.64,0,0,1-.44-.08A.34.34,0,0,0,218.2,319.77Z"/><path class="cls-1" d="M207.91,311.68l-.21-.11Z"/><path class="cls-1" d="M229.65,328.09a.19.19,0,0,0,0,.13A.14.14,0,0,0,229.65,328.09Z"/><path class="cls-1" d="M191.49,310.13s0,0,0,0S191.54,310.09,191.49,310.13Z"/><path class="cls-1" d="M200,305.63l-.1.09a.52.52,0,0,0,.07.15Z"/><path class="cls-1" d="M236.58,359.39l0,0C236.63,359.16,236.6,359.27,236.58,359.39Z"/><path class="cls-1" d="M190.58,389.83c.79.25-1.29.32-.09.6C190.37,390.32,191.57,390,190.58,389.83Z"/><path class="cls-1" d="M207.23,309.82l.28.2A2,2,0,0,0,207.23,309.82Z"/><path class="cls-1" d="M190.49,390.43h0l.12,0Z"/><path class="cls-1" d="M231.32,376.14a.45.45,0,0,0,.17-.13S231.41,376,231.32,376.14Z"/><path class="cls-1" d="M235.74,363.83l-.14.29A1.49,1.49,0,0,0,235.74,363.83Z"/><path class="cls-1" d="M229.59,382.73a1.13,1.13,0,0,0-.16.44l0-.06A.62.62,0,0,1,229.59,382.73Z"/><path class="cls-1" d="M227.41,389.45l.1-.11.05-.22Z"/><path class="cls-1" d="M174.19,322.86a1.06,1.06,0,0,1,.41,0C174.39,322.78,175.19,322.11,174.19,322.86Z"/><path class="cls-1" d="M207,309.8a.26.26,0,0,1,.24,0l-.2-.12A.07.07,0,0,0,207,309.8Z"/><path class="cls-1" d="M231.61,383.68l-.38,1.06C231.35,384.45,231.49,384.07,231.61,383.68Z"/><path class="cls-1" d="M162.12,363.52l-.12-.24A.54.54,0,0,0,162.12,363.52Z"/><path class="cls-1" d="M230.24,387.92a2.2,2.2,0,0,0-.38.54.25.25,0,0,0,0,.15Z"/><path class="cls-1" d="M174.6,322.88Z"/><path class="cls-1" d="M180.2,318c-.87.62-.2.59-.26.89-1,.84-.63.13-1.1.23-.59.55-.88,1.18-1.37,1.52-.07,0-.18,0-.11-.11-.51.73-2,1.48-2.6,2.36h-.16a.54.54,0,0,1,.42.32c-.38.29-.58.71-.87.62.25-.16.21-.26.27-.4l-.34.38c-.57,0,.48-.5.33-.71a15.26,15.26,0,0,1-2.14,1.94c-.33-.19,1.35-1.13.36-.78l1-.58c-1,.09.59-.39-.41-.37-1.29.82-1.28,1.14-2.57,2-.17.36.26.16.09.51-1.56,1.55-1.88.32-2.91,1.62-.2.43-.08.87-1.13,1.35l.09-.54c-1.22.84-.36.95-1.77,1.65.14-.29.87-.79.66-.69-1,.34-.44.59-1.07,1l-.33-.18c-1.24,1-2.5,2.19-3.88,3.27,0-.14.2-.4-.19-.25a26.92,26.92,0,0,1-2.78,2c-.48.32-1,.63-1.46.93l-.73.43-1.27.83-.39.45.43.78c.09.29.05.58-.13.23.35,1.42.22.06.54.68a1.44,1.44,0,0,1,.1.37.44.44,0,0,1,0,.17c0,.07-.12.06-.2-.07a19.6,19.6,0,0,1,2,5.35l-.18-.25c.26,1.17,1,1.1,1.08,2.24l-.12-.19c.68,2.51,1.83,5.16,2,7.19.52.23.62,2.51,1.23,2.48a16.17,16.17,0,0,0,.41,3.18c.14.54.6.68.88,1.32l-.29.11.6.79-.2.59.27.59c-.06-.25,0-.56.06-.55a4.52,4.52,0,0,1,.42,2.48l1,2.2c-.14,0-.3-.38-.48-.66.7,1.12-.23.32.4,1.35,0-.17.2,0,.27,0a9.91,9.91,0,0,0,.79,2.79l-.26-.12c.5,1.71,1.26,3.53,1.87,5.43-.13-.71.27-.67.49-.13l-.24.33c.31.29-.07-.62.4,0,.2.72-.2.59-.43.22l.39.82c-.08.08-.19-.1-.33-.12.31.29.17,1.59.67,2l-.07.08c.61,1.89,1,2.72,1.51,4.26.28-.06.42.56.78.95.29,1.16.48,2.49,1,3.85.45.92.32.21.62.59-.22.15.24,1.5-.16.85l.76,2.2,2.09-.07,1.66-.15c-.23-.1-.5-.15-.36-.23.4,0,.9.1.84.23l-.1,0c2.45-.38,5.65.75,7.6.22l-.11,0,2-.28c.93.05-.56.2.13.36,2.18-.43,3.45.06,5.24-.23,1.39.76,4.94-.05,6.81.43l-.11-.18c.49-.17.59.11.95.15-.05-.14-.53-.16-.23-.26,4.11-.21,8.48.26,12.7.42,1.54.05.87-.92,2.81-.5l-.55.33c3.11-.39,6.36,0,9.4-.32-.18.08-.19.18-.48.18a3.85,3.85,0,0,0,2.38-.19c.48,0,.11.18.41.28.64.14,1.61-.31,2-.07.06,0-.18.08-.3.1a1.67,1.67,0,0,1,.38-.05h.9a5.38,5.38,0,0,0,1.25-.08c0-.06,0-.08,0,0s0,0-.11-.06h.07c.18-.44.33-.9.48-1.35l.19-.63.1-.37a6.14,6.14,0,0,1,.48-1.37c-.11-.66.74-1.81.38-2.12.41.21,1-1.8,1-2.55.06.27.33-.55.42-.22.25-.79.41-1.53.14-1.47,1-1.28.53-3,1.45-3.64.53-2.4,1.07-4.6,1.65-6.73.41.21-.71,2.33-.23,2.38a32.47,32.47,0,0,1,1.22-5.24c.22-.49.09.35.11.54.47-2,1.28-3.82,1.62-5.67,0,0,0,.23,0,.42.1-.35.32-.79.12-.81l-.06.35c-.46.47-.14-1.57-.27-1.68.36.77.71-1.7,1.11-.53,0-.25,0-.56-.11-.55.15-.33.26-.41.29,0,.3-1.28-.05-.91.32-2,.1,0,.06.28.13.43a5,5,0,0,1,.4-2.19c0,.07.14,0,.05.27.5-1.65.42-2.95,1.18-4.69.24.66.33-.57.72-.55l.21-1-.3.33a18.47,18.47,0,0,1,.62-2.37l-.06.68.45-1.61L242,349c.1-.91-.48,0,0-1.15a8.53,8.53,0,0,1,.63-1.22h0a3.53,3.53,0,0,1,.34-1.53c.16-.12.35.26.46.18-.17-.51.56-2,.41-2.64,0,.2.2.27.26.23l-.13-.43c.21-.37.26-.41.39-.3.43-1.17-.57.23.08-1.11,0,.12,0,.08,0,.32a13.77,13.77,0,0,0,.5-1.54l.24-.88.28-.94a11.63,11.63,0,0,1-1.05-.8c-.21-.61,1.4.91,1.18.36l-.95-.65-.37-.23-.33-.2-1.3-.77a22.37,22.37,0,0,1-2.46-1.64l.26.24c-.53.28-1-1-1.91-1.4.21.1.42-.06.33-.05a33.79,33.79,0,0,0-3.91-2.48l.27,0c-.55-.55-1.59-1.25-2.22-1.78-.28,0-.65-.33-.53,0-1.61-2.13-4.18-2.53-5.63-4.38.22.16.59.28.42.16l-1.64-1c0,.27.12.26.35.64a3.09,3.09,0,0,1-1.17-.55c.79.39.21-.3,0-.63,0,.1-.14.09-.15.16-.58-.92-.41.28-1.36-.75l.13-.06a8.29,8.29,0,0,1-1.36-.75c0-.35.52.22.67.06-.64-.44-1.54-.49-2-1.12.31.13.7.41,1,.55a3.16,3.16,0,0,0-1-1.07l0,0-1-.9.22.27c-1.2,0-1.68-1.06-3-1.47,1.28.41.31-.07.57-.26-.22-.27-.58-.64-.41-.63-.65-.16-.73-.76-1.64-1,0-.1-.54-.39-.28-.51-.7-.41.06.25-.07.31-1.2-.46-2.13-2.05-3.85-2.73-1.35-.75-1.78-.66-3-1.37-.3-.41.53-.05.53-.05a5.75,5.75,0,0,0-1.7-1.24c.17,0,.09-.13,0-.35-.49-.33-.53.06-1.07-.52a1.91,1.91,0,0,1,.7,0c-.61-.33-1.27-.59-1.91-.94-.05-.25.51,0,.78.1-.7-.41-1.79-1.1-2.15-1l.37.38c-.25-.16,0-.28.21-.19.69.24.76.67.73.77l-.45-.25c.09.77,1.72,1.13,2.53,1.77l-.59.08,1.06.34c.12.22.11.5-.34.25.47.6.61.27,1,.82,0,.07,0,.07-.06.05l.66.32c-.17,0-.08.31-.4,0,.9,1,1.87,1,2.08,1.52l-.1,0c1.54.94.32-.15,1.62.35l.29,1.15.33-.15c.14.12.42.36.3.42.68.23,0-.18.42-.11.56.75,2.07,1.35,1.95,1.86.39,0-.59-.65.28-.22-.09.59.94.58,1.46,1.25-.36.07-.9-.5-.38.18.66-.08,1.22,1,1.83,1.35.24-.28,1.3.75,2.31,1.33a30.61,30.61,0,0,0,2.43,2.18l-.06,0c.38-.17,1.24.53,1.94.95-.16.16-.33.14-.74,0l.62.45a1.93,1.93,0,0,1,.86.35l-.32.11a17.36,17.36,0,0,1,2.78,1.85c.21-.17-.41-1.19.8-.52,0,.15-.14.37-.46.2a2,2,0,0,1,.56.34l-.58-.13c.42.43.36,0,.73.32-.12.15.2.32.06.41s-.29-.31-.48-.36a4,4,0,0,1,1,1.06c0-.11.15-.21.48,0,.83.58.14.39.56.82.28,0,.72.53.9.3a.58.58,0,0,1,.25.45c.5.2,2,1.4,1.71.8l-.1-.09.08,0h0c1.56.77,2.78,2.23,4.23,3.12l-.06.08a23.24,23.24,0,0,0,2.57,1.53c.25.17.47.56.3.58a5.48,5.48,0,0,1,1.61,1.15c-.73-.32.13.28-.72-.37a5.23,5.23,0,0,0,1.89,1.34c-.22,0-.11.17.1.37a.89.89,0,0,0,.35.26,1.84,1.84,0,0,0-.13-.33,3.25,3.25,0,0,1,.45.32l-.12.31a1.14,1.14,0,0,0-.33-.08,1.58,1.58,0,0,0-.17.25,1.35,1.35,0,0,0-.09.26l-.09.34c-.11.46-.18.91-.25,1.35a4.19,4.19,0,0,1-.85,2.31c.05.59.5-1,.61-.47a15,15,0,0,1-1.19,2c-.57,1.18.09,1.31-.45,2.56.17-.13.52-.19.31.82s-.83.95-.74.35c.06-.22.13-.31.17-.29,0-.3.13-.7-.11-.38l.07.15c-.26.41-.65,1.66-.74,1.3-.11.72.09.36.31-.13-.54,1.1-.59,1.81-1.09,3,.13-.17.32-.3.26-.11-.71,1.7,0,.84-.38,2-.39.62-.33-.37-.57.86-.36.69-.35.06-.35-.26a8.28,8.28,0,0,1-1,2.59l.09-.6a6.6,6.6,0,0,1-.24.93l.33-.26c-.15.33-.24.61-.33.57,0,.4.46-.14.44.61-.26.41-.32,1.41-.67,1.46.56-1.37-.35.06,0-1.15a2.89,2.89,0,0,1-.28.85c-.05,0,0-.07,0-.17-.71,1.27.14.73-.32,2.13-.11-.23-.43.22-.47.46.19-.56.37-.18.33.38-.42.85-.21,1-.38,1.47l.23-.52c.11.24-.05.68-.2,1.32-.15,0,.09-.59,0-.39.07.79-.82,1.47-.93,2.5-.26.41-.33-.06-.54.31-.13,1.15-.61,1.09-.8,2.29.33-.25.3-.33.26.55l.45-1.93-.06,1.31c.18-.56.24-1.24.39-1.56,0,.63,0,.55.24.34-.59.67-.3,1.6-.82,2.42l-.56-.21c-.68,1.26-.48,2.48-1.19,4.18l.28-.53c.15.31-.32,1.09-.41,1.68-.17-.11-.36.22-.55.42.15,0-.43,1.28-.11,1.56l-.5.69c-.56,1.38,0,1.79-.49,3.12-.07-.48-.4.1-.25-.86-.15.45-.32.85-.19.9-.2.22-.16,1.33-.47,1.69,0,.22.2.35,0,.85-.06,0-.1,0-.1,0s-.13.83.22.46c-1,1.2-1.22,3.9-2.11,4.95l-.09.34,0,.21-.11.44c-.36,0-.65.05-1.25.06.06-.06,0-.1.18-.08-1.3-.18-.8.57-2.28.36-.75-.31.79-.17.32-.29-.21-.65-1.79.09-2.78-.29l.24,0c-.76-.22-1.86.25-3.1.2,0,0,.06-.06,0-.1a15.8,15.8,0,0,1-3.66.54c.37-.26.54-.14.32-.4-.54,0,.15.42-.91.49-.35-.14-1.12-.26-1.23-.54h1c-.51-.36-1.3,0-1.84-.05l.07-.16c-1.54.05-1.56.45-3.23.42l.18.12c-.91.39-.77-.22-1.67.07l-.28-.4c-.6.1-2.1.38-3.17.46a17.07,17.07,0,0,1,2.64-.62,8,8,0,0,0-2.32.23,2,2,0,0,1,.77-.08,7.21,7.21,0,0,1-2.87.46c.21-.77-3.08-.19-3.94-.79-2.09.28-4.16-.12-6.59-.07.86.59-.72,0-.57.62a2.1,2.1,0,0,1-.83,0l-1.72-.36c-.41-.18.54-.14.48-.27-1.24-.05-.52-.26-1.34-.43.17.22-.43.32-1.14.23l1,.29c-1.74.32-1.51-.52-3.26-.19l.55-.2c-.89.12-3.31,0-4.19.49-.16-.07-.37-.24,0-.28-2.15-.08-4.78.52-6.45.22l.16-.15c-.39,0-.71.28-1.19.13,0-.06.12-.15,0-.16a.76.76,0,0,1-.4.19.27.27,0,0,1,0-.16.47.47,0,0,0,.17,0,.84.84,0,0,0,0-.19s0-.05,0-.07-.06-.18-.09-.25a11.07,11.07,0,0,0-.53-1.09,17.62,17.62,0,0,1-1.08-2.13c.42-.13.05-1.75-.14-2.55h.07a56.46,56.46,0,0,0-2.49-5.93c0-1.48-1.28-4.58-1.72-6.81,0,.35-.35.05-.51-.32-.08-.53-.74-1.29-.33-1.34l0,.18c.25-.5-.19-1.5-.44-2.31l-.54,0c0-2.35-2.07-5.45-1.79-6.81-.29-.47-.5-1.11-.79-1.57l.28-.06a39.24,39.24,0,0,0-1.21-3.88l.3.3c-.3-1-1.18-1-1.49-1.9l.32-.4c-.57-1.72-.78-3.57-1.7-5.15.07,0,.2,0,.31.29-.25-.81-.74-3.21-1.2-2.74.35-.14-.54-1.78-1-2.66l.31.06a4.34,4.34,0,0,1-1.14-1.73c0-.27.14-.3.18.07-.14-.91-.47-.59-.67-1.69l.3.34c-.16-.51-.17-.49-.25-.6a3.49,3.49,0,0,1-.35-.32l-.07-.15a2.14,2.14,0,0,1,.63-.37c.22-.08.56-.2.66-.13a1.51,1.51,0,0,1,.79-.93c.12,0,0,.19-.08.28,1.38-.77,1.69-1.63,2.72-2a.25.25,0,0,0,.25,0c-1,.72-1.83,1.3-1.76,1.22.15.21,1-.34.55.42a10.09,10.09,0,0,1,2.26-2.26.29.29,0,0,1,.16,0l-.07.08a1.73,1.73,0,0,0,.48-.4,6.77,6.77,0,0,0,.7-.41c.22.1,1-.58,1.41-.87-.2-.2.35-.55-.28-.38.08,0,0,.08-.32.29a2.11,2.11,0,0,0-.15.15v0l-1,.74a2.08,2.08,0,0,1,1-.88c.11-.3.23-.62.3-.78.79-.08,2-.69,2.27-.6,1.14-1,2.85-2.2,3.31-3.19.31-.31.49-.17.67-.2a4.22,4.22,0,0,0-.48.5c.62-.62,2.05-1.55,2-2,1-.51-.3.63.88-.3l-.09.21c2.74-1.26,3.33-3.58,6.43-4.9-.21.1-.32.15-.39.12,3.22-1.92,6-4.78,9.34-6.51.91-.53.86-.79,1.27-1.31l.37.11.68-.93c1.1-1.11,2.6-1,3.91-2.52l-.33,0c.6-.38,1.74-1.41,1.78-1.15a.53.53,0,0,1,.35-.38l.11.11L197.3,308c1.16-.7.2.63,1.81-.5.55-.48,1.4-1.59,1.12-1.51s-.67.36-.78.24l.49-.46c-.17-.44,0-1.13-1.55-.43l-.76.9-.43,0,.77-.57c-.56.14-.73.5-1,.83a.76.76,0,0,0-.53.08l-.64,1c-.22-.07.19-.59-.48-.23-.3.47.65,0,0,.65-.57.15-.54-.08-.95.44-.15,0-.08-.18.09-.38-.37.46-1.18.94-1.27,1.31-.62.13-1.52,1.19-1.73.8a5.09,5.09,0,0,1-1,1.19c.46-1-1.61,1.13-1.73.52-.3.8-2,1.67-2.81,2.62a.64.64,0,0,1,.21-.26,6.24,6.24,0,0,1-1.26.58c.15.37-.68,1.09-1,1.64-.92.2.15-.69-.28-.82.22.23-1,1.14-.63,1.18-.68.2-.53.24-1,.18.2.47-.45.43-.71,1-.92.36-.47-.23-1.24.51C179.54,318.68,180.2,318,180.2,318Zm-19.73,15.38h0l.41-.31Zm-1.69,1.23c.21-.14.47-.32.74-.52.12,0,.11.16-.06.28C159.51,334.24,159.08,334.49,158.78,334.6Zm4.74-1c-.25.23-.37.25-.44.23l.45-.37v-.05A.32.32,0,0,1,163.52,333.57Z"/><path class="cls-1" d="M163.78,332.92l.1-.1-.2.07,0,.14Z"/><path class="cls-1" d="M233.55,330.46l0,0s-.05-.06-.05-.09Z"/><polygon class="cls-1" points="161.26 361.34 161.33 361.31 161.21 361.16 161.26 361.34"/><path class="cls-1" d="M224.75,322.88s0-.07-.08-.14A.55.55,0,0,0,224.75,322.88Z"/><path class="cls-1" d="M220.75,319.9l-.51-.5A5.66,5.66,0,0,0,220.75,319.9Z"/><path class="cls-1" d="M217.72,317.53a.27.27,0,0,0-.13.05h0Z"/><path class="cls-1" d="M237.61,364.16a1,1,0,0,0,0,.14C237.52,364.65,237.57,364.42,237.61,364.16Z"/><path class="cls-1" d="M242.6,346.67a5.87,5.87,0,0,1,0,.59C242.67,347,242.75,346.72,242.6,346.67Z"/><polygon class="cls-1" points="231.66 383.57 231.65 383.56 231.61 383.68 231.66 383.57"/><path class="cls-1" d="M242.28,348.07a2.75,2.75,0,0,0,.27-.81A3.85,3.85,0,0,0,242.28,348.07Z"/><path class="cls-1" d="M204.33,307.63l-.15-.11a.05.05,0,0,1,0,0Z"/><path class="cls-1" d="M204.14,307.54l-.19-.09C204,307.5,204.1,307.55,204.14,307.54Z"/><path class="cls-1" d="M203.56,307.25l.39.2C203.83,307.36,203.69,307.24,203.56,307.25Z"/><path class="cls-1" d="M208.36,310.73l.11-.05A.14.14,0,0,0,208.36,310.73Z"/><path class="cls-1" d="M209.63,311.61a7,7,0,0,0-1.07-1l-.09,0C208.76,310.7,209.25,311.55,209.63,311.61Z"/><path class="cls-1" d="M214.11,316.42l-1-.82c.12.22.28.51-.22.19C214,317,212.76,315.39,214.11,316.42Z"/><path class="cls-1" d="M217.27,318.91c-.6-.37-.09.14-.16.16C217.53,319.25,217.63,319.29,217.27,318.91Z"/><path class="cls-1" d="M240.75,336l-.21.17C241,336.42,240.6,336.06,240.75,336Z"/><path class="cls-1" d="M245.32,339.12l.41-.74a1.87,1.87,0,0,0-.16-.28Z"/><polygon class="cls-1" points="242.54 341.79 242.58 341.56 242.39 342.44 242.54 341.79"/><path class="cls-1" d="M227.56,388.18l.35-.06C228,387.76,227.66,387.58,227.56,388.18Z"/><path class="cls-1" d="M209.33,390.26a1.47,1.47,0,0,0-1.18-.1A11.33,11.33,0,0,0,209.33,390.26Z"/><polygon class="cls-1" points="165.39 365.86 165.62 366.23 165.29 365.5 165.39 365.86"/><path class="cls-1" d="M300,232.09c-.07.15.11.26.41,0l0-.43Z"/><path class="cls-1" d="M302.57,231c.29-.41.56-1,.14-1-.2.53-.37.49-.55,1.09-.31.27-.63.33-.65.19-.07.15-.55.31-.6.61a2.57,2.57,0,0,0,1.55-1.07C302.63,230.77,302.56,230.92,302.57,231Z"/><path class="cls-1" d="M334.71,208.27l-.22.12A.81.81,0,0,0,334.71,208.27Z"/><path class="cls-1" d="M353.79,207c-.15-.1-.24-.12-.26-.1C353.68,206.93,353.81,207,353.79,207Z"/><path class="cls-1" d="M356.94,209.7l-.18-.17A.47.47,0,0,0,356.94,209.7Z"/><path class="cls-1" d="M334.71,208.27l.59-.3C335.28,207.86,335,208.11,334.71,208.27Z"/><path class="cls-1" d="M306.49,227.15a2.78,2.78,0,0,0-.24.28l.25-.22S306.49,227.18,306.49,227.15Z"/><path class="cls-1" d="M326.17,214.81l-.16.12a1.17,1.17,0,0,0-.05.2Z"/><path class="cls-1" d="M319.53,219.7c.16-.1,0-.37,0-.51a.67.67,0,0,1-.22.4A.36.36,0,0,0,319.53,219.7Z"/><path class="cls-1" d="M308.66,227l-.17.17Z"/><path class="cls-1" d="M331,211.39a.17.17,0,0,0,.12,0A.19.19,0,0,0,331,211.39Z"/><path class="cls-1" d="M302.11,242.13l.05,0C302.11,242.07,302.09,242.07,302.11,242.13Z"/><path class="cls-1" d="M300.48,232.6l0,.12a.41.41,0,0,0,.16,0Z"/><path class="cls-1" d="M362.9,214.47l0,0C362.69,214.35,362.79,214.41,362.9,214.47Z"/><path class="cls-1" d="M377.63,267.62c.48-.68-.09,1.32.54.28C378,268,378.09,266.73,377.63,267.62Z"/><path class="cls-1" d="M306.68,227.06l.28-.2A1.59,1.59,0,0,0,306.68,227.06Z"/><path class="cls-1" d="M378.17,267.9h0l.07-.11Z"/><path class="cls-1" d="M377.2,224.65a.52.52,0,0,0-.07-.21S377.13,224.52,377.2,224.65Z"/><path class="cls-1" d="M366.85,216.64l.24.22A1.17,1.17,0,0,0,366.85,216.64Z"/><path class="cls-1" d="M382.93,228.32a1.17,1.17,0,0,0,.37.3.16.16,0,0,0,0-.07A.64.64,0,0,1,382.93,228.32Z"/><path class="cls-1" d="M388.65,232.47a.83.83,0,0,0-.08-.12l-.19-.12Z"/><path class="cls-1" d="M308.87,262.52a1.24,1.24,0,0,1,.14-.39C308.86,262.29,308.47,261.33,308.87,262.52Z"/><path class="cls-1" d="M306.59,227.28a.26.26,0,0,1,.09-.22l-.18.15S306.53,227.29,306.59,227.28Z"/><path class="cls-1" d="M384.46,226.69l.89.7C385.11,227.18,384.79,226.93,384.46,226.69Z"/><path class="cls-1" d="M343.81,286.56l-.26,0A.53.53,0,0,0,343.81,286.56Z"/><path class="cls-1" d="M388.07,229.31a2.06,2.06,0,0,0,.4.53.36.36,0,0,0,.14,0Z"/><path class="cls-1" d="M309,262.12h0Z"/><path class="cls-1" d="M306.1,255.3c.32,1,.49.36.77.51.49,1.18-.08.65-.12,1.12.33.73.85,1.21,1,1.78,0,.06,0,.17-.15.07.54.71.79,2.37,1.44,3.19a.22.22,0,0,1,0,.15.57.57,0,0,1,.43-.3c.16.46.5.78.33,1-.09-.28-.19-.27-.3-.38l.25.45c-.19.54-.32-.62-.57-.54a15.35,15.35,0,0,1,1.18,2.64c-.28.26-.66-1.63-.63-.59l-.24-1.14c-.23,1-.18-.69-.47.27.38,1.48.69,1.57,1.07,3.05.28.27.23-.19.51.08,1,1.95-.28,1.88.64,3.26.34.32.8.34.94,1.49l-.49-.25c.42,1.42.79.64,1,2.19-.23-.22-.48-1.07-.45-.84,0,1.05.42.61.66,1.34l-.27.26c.54,1.48,1.31,3.06,1.9,4.7-.12-.06-.32-.31-.29.11a26.65,26.65,0,0,1,1.08,3.27c.16.56.3,1.12.43,1.68l.19.82c.14.5.27,1,.4,1.46l.3.51.88-.16c.3,0,.56.13.17.19,1.46.11.13-.19.82-.3a1.18,1.18,0,0,1,.38,0,.3.3,0,0,1,.16.07c.06.05,0,.12-.13.16a19.73,19.73,0,0,1,5.7-.22l-.3.09c1.2.12,1.35-.6,2.47-.33l-.22.05c2.6.13,5.48-.14,7.46.31.38-.43,2.58.18,2.74-.41a16,16,0,0,0,3.16.6c.55,0,.83-.37,1.52-.43l0,.31.93-.33.5.37.65-.08c-.26,0-.55-.14-.51-.22a4.5,4.5,0,0,1,2.49.37l2.4-.26c-.06.12-.46.16-.77.24,1.27-.31.23.33,1.4,0-.16-.07.08-.18.11-.25a9.79,9.79,0,0,0,2.9.11l-.19.22c1.77.05,3.74-.11,5.73-.1-.71-.1-.55-.47,0-.5l.23.32c.38-.2-.61-.12.16-.37.75,0,.51.37.08.48l.9-.11c.06.09-.16.14-.21.27.37-.2,1.56.32,2.1,0l0,.1c2,0,2.89-.11,4.52-.13,0-.28.66-.21,1.15-.44,1.19.09,2.51.31,3.95.29,1-.14.29-.24.75-.41.07.26,1.51.23.76.42l2.33-.05.58-2c.1-.44.22-.95.37-1.63-.17.2-.3.44-.34.28.09-.39.38-.83.48-.73v.1c.39-2.44,2.45-5.14,2.55-7.16v.11l.36-2c.33-.87,0,.59.37,0,.27-2.21,1.13-3.26,1.41-5.06,1.15-1.08,1.47-4.7,2.51-6.34l-.2.05c0-.52.28-.53.43-.85-.15,0-.32.45-.32.13,1.07-4,2.87-8,4.33-11.94.52-1.45-.61-1.12.39-2.83l.15.62c.58-3.07,2-6,2.6-9,0,.19.11.23,0,.51a3.94,3.94,0,0,0,.57-2.33c.16-.44.2,0,.38-.3.34-.57.21-1.63.54-1.88.06,0,0,.19,0,.31a2.83,2.83,0,0,1,.08-.37l.26-.86a4.6,4.6,0,0,0,.31-1.22c-.06,0-.08,0-.06,0s0,0-.09.09l0-.07c-.36-.3-.75-.59-1.13-.86l-.54-.38-.33-.21a6.14,6.14,0,0,1-1.14-.88c-.67-.1-1.5-1.27-1.91-1,.33-.32-1.4-1.48-2.11-1.73.27,0-.43-.48-.09-.47-.67-.48-1.33-.85-1.35-.58-.91-1.33-2.72-1.44-3-2.51-2.12-1.24-4.05-2.44-5.9-3.65.33-.31,2,1.4,2.2,1a32.79,32.79,0,0,1-4.61-2.78c-.4-.36.36,0,.55.07-1.8-1.08-3.24-2.41-4.89-3.3,0,0,.22,0,.4.13-.31-.2-.65-.55-.74-.36l.32.16c.3.59-1.54-.35-1.69-.26.85-.11-1.39-1.2-.16-1.22-.22-.11-.52-.21-.55-.07-.27-.24-.32-.37.07-.28-1.13-.68-.88-.23-1.84-.94.07-.07.28,0,.45,0a5,5,0,0,1-2-1.05c.09,0,0-.14.28,0-1.41-1-2.68-1.31-4.1-2.57.71,0-.44-.49-.3-.85l-.89-.51.23.39a18.89,18.89,0,0,1-2.06-1.32l.62.26-1.39-.92.68.67c-.84-.38-.2.43-1.1-.35.22.11-.71-.52-1-1h0a3.69,3.69,0,0,1-1.34-.79c-.07-.2.35-.26.31-.39-.54,0-1.74-1.15-2.38-1.21.19.05.32-.11.29-.17h-.44c-.29-.31-.32-.38-.17-.47-1-.76,0,.62-1-.41.1,0,.08,0,.3.1a12.89,12.89,0,0,0-1.31-1l-.76-.5-.81-.55a11.54,11.54,0,0,1-1.08.75c-.65,0,1.3-1,.7-1l-.9.7-.34.28-.29.25-1.14,1a20.55,20.55,0,0,1-2.32,1.84l.31-.18c.1.59-1.29.62-1.92,1.39.16-.17.07-.42.06-.34a33.52,33.52,0,0,0-3.57,3l.12-.25c-.69.35-1.68,1.13-2.38,1.56-.12.26-.52.52-.17.51-2.52.87-3.69,3.2-5.9,4,.22-.16.45-.47.28-.35l-1.49,1.24c.26.09.29,0,.72-.13a3,3,0,0,1-.88.94c.61-.63-.22-.3-.6-.18.09,0,0,.16.1.2-1.05.26.14.47-1.14,1.06v-.14a8.27,8.27,0,0,1-1.14,1.06c-.34-.09.37-.43.27-.63-.62.47-.94,1.32-1.67,1.52.22-.26.61-.54.83-.79a3.07,3.07,0,0,0-1.32.61l.05,0-1.15.66.32-.13c-.38,1.14-1.53,1.27-2.33,2.41.78-1.1,0-.32-.07-.63-.32.13-.79.36-.72.2-.36.56-1,.46-1.45,1.26-.09-.06-.54.38-.58.1-.6.54.26,0,.28.17-.81,1-2.61,1.39-3.79,2.81-1.13,1.06-1.17,1.49-2.23,2.47-.49.15.11-.52.11-.52a5.63,5.63,0,0,0-1.71,1.23c.07-.16-.09-.13-.34-.08-.46.36-.11.51-.82.86a2,2,0,0,1,.24-.67c-.5.48-.95,1-1.48,1.53-.26,0,.2-.47.34-.7-.61.53-1.61,1.35-1.65,1.72l.47-.23c-.23.18-.25-.1-.11-.27.44-.57.87-.51,1-.45l-.38.35c.76.15,1.61-1.28,2.46-1.86l-.1.59.65-.91c.25,0,.51.06.13.41.72-.27.45-.51,1.09-.7.08,0,.07,0,0,.08l.51-.53c-.07.16.27.17-.13.38,1.19-.56,1.51-1.48,2.09-1.51l-.07.08c1.37-1.17,0-.35.84-1.43l1.18.08,0-.35c.16-.1.47-.3.49-.16.43-.58-.18,0,0-.44.89-.3,1.92-1.55,2.37-1.27.12-.38-.8.35-.12-.34.52.27.83-.72,1.64-1-.05.36-.76.7,0,.42.13-.66,1.35-.86,1.85-1.33-.18-.32,1.13-1,2-1.78a32.11,32.11,0,0,0,2.82-1.64v.07c-.05-.42.89-1,1.5-1.56.1.2,0,.36-.26.69l.61-.44a2,2,0,0,1,.61-.72v.34a17.12,17.12,0,0,1,2.61-2.08c-.09-.25-1.26,0-.24-.91.12.08.3.24,0,.5a1.72,1.72,0,0,1,.5-.43l-.31.51c.54-.26.14-.34.53-.6.11.17.37-.09.41.08s-.39.17-.49.34a3.79,3.79,0,0,1,1.31-.57c-.11-.07-.16-.22.14-.47.81-.6.42,0,1-.27.11-.26.72-.52.56-.77.24-.17.36-.09.5-.1.35-.41,2-1.46,1.3-1.37l-.13.06.07-.06h0c1.21-1.24,3-1.95,4.27-3l.06.08a24.05,24.05,0,0,0,2.25-2c.24-.18.68-.27.64-.1a5.49,5.49,0,0,1,1.59-1.19c-.53.6.31,0-.57.58a5.14,5.14,0,0,0,1.86-1.39c-.07.21.13.16.39,0a.89.89,0,0,0,.35-.26,1.1,1.1,0,0,0-.35,0,3.19,3.19,0,0,1,.43-.34l.26.22a1,1,0,0,0-.17.28.87.87,0,0,0,.18.24l.22.17.3.19c.4.25.81.45,1.2.65a4.3,4.3,0,0,1,1.94,1.53c.57.13-.81-.79-.26-.73a16.11,16.11,0,0,1,1.5,1.74c.94.91,1.27.32,2.29,1.22-.07-.2,0-.55.87-.05s.65,1.09.11.82c-.19-.13-.25-.22-.22-.25-.28-.14-.63-.34-.4,0l.17,0c.31.38,1.37,1.13,1,1.11.65.33.36,0,0-.34.88.86,1.53,1.12,2.48,1.95-.12-.17-.19-.39,0-.27,1.4,1.2.79.29,1.82,1,.47.57-.45.2.65.82.55.55-.05.35-.36.25A8.21,8.21,0,0,1,361,213.1l-.54-.27a5.28,5.28,0,0,1,.8.51l-.13-.39c.26.24.5.42.44.49.38.09,0-.48.71-.23.31.38,1.24.74,1.18,1.09-1.13-1-.05.35-1.09-.34a3.41,3.41,0,0,1,.71.52c0,.06-.07,0-.16,0,1,1.06.73.09,1.92,1-.26,0,.08.47.29.58-.48-.35-.05-.4.47-.19.68.66.88.51,1.27.82l-.41-.39c.26,0,.62.27,1.19.61,0,.14-.54-.27-.39-.09.78.18,1.15,1.23,2.09,1.66.31.37-.16.3.13.6,1.06.49.85.93,1.93,1.48-.13-.4-.22-.39.6-.08l-1.69-1,1.23.46c-.48-.35-1.11-.61-1.37-.86.6.2.52.21.4-.12.45.77,1.43.78,2.05,1.53l-.37.46c1,1.05,2.21,1.23,3.6,2.43l-.41-.43c.33,0,.93.64,1.47.91-.16.13.1.41.23.65.06-.13,1.08.8,1.44.58l.51.7c1.14.95,1.7.53,2.81,1.43-.47-.08,0,.41-.89,0,.38.28.71.57.79.46.16.26,1.23.56,1.47,1a1.11,1.11,0,0,1,.81.24c0,.07-.06.08-.06.08s.76.38.51-.07c.82,1.36,3.33,2.37,4.05,3.55l.3.18.18.11.39.24c-.08.35-.15.64-.33,1.21,0-.08-.09,0,0-.2-.57,1.18.3.94-.36,2.28-.53.62.08-.8-.18-.39-.68,0-.46,1.73-1.13,2.56l0-.25c-.45.66-.34,1.85-.77,3,0,0,0-.07-.09,0a15.64,15.64,0,0,1-.63,3.64c-.12-.44,0-.56-.27-.43-.13.52.44,0,.18,1-.24.29-.59,1-.89,1l.3-1c-.5.39-.39,1.25-.62,1.74l-.12-.12c-.43,1.49-.07,1.63-.61,3.2l.17-.12c.09,1-.44.65-.45,1.6l-.46.14c-.09.6-.28,2.12-.55,3.16a16.41,16.41,0,0,1,.23-2.7,8.21,8.21,0,0,0-.5,2.28,2.11,2.11,0,0,1,.17-.76,7.18,7.18,0,0,1-.46,2.87c-.66-.44-1.13,2.87-2,3.51-.38,2.08-1.4,3.91-2.11,6.24.83-.64-.21.69.42.73-.14.56-.21.76-.27.79l-.88,1.53c-.29.33,0-.56-.1-.55-.43,1.17-.41.42-.82,1.15.26-.09.16.51-.13,1.16l.57-.87c-.23,1.76-.95,1.27-1.19,3v-.59c-.17.89-1,3.16-.83,4.15-.12.13-.34.28-.26-.11-.74,2-1,4.71-1.79,6.2l-.09-.2c-.08.39.05.76-.24,1.17,0,0-.11-.16-.15-.05a.79.79,0,0,1,.06.44.32.32,0,0,1-.17,0,.51.51,0,0,0,0-.17.93.93,0,0,0-.19,0h-.34c-.42,0-.82.1-1.2.17a17.74,17.74,0,0,1-2.36.36c0-.44-1.64-.58-2.47-.65l0-.06a56.35,56.35,0,0,0-6.4.53c-1.41-.47-4.76-.2-7-.46.34.08-.06.34-.46.38s-1.46.31-1.38-.09h.19c-.4-.39-1.49-.29-2.34-.3l-.14.53c-2.22-.77-5.82.28-7-.41-.53.14-1.2.13-1.73.27l0-.29c-1.49-.07-2.23-.1-4.06,0l.37-.2c-1,0-1.31.82-2.26.83l-.29-.42c-1.8,0-3.63-.36-5.42,0,0-.06.08-.18.38-.2-.85,0-3.29-.29-3,.29,0-.38-1.87,0-2.84.13l.15-.28a4.3,4.3,0,0,1-2,.56c-.27,0-.24-.23.12-.16-.91-.14-.71.27-1.81.12l.41-.18c-.53,0-.51,0-.64.06s-.19.12-.42.22l-.16,0a2,2,0,0,1-.15-.71c0-.25,0-.6.07-.67a1.56,1.56,0,0,1-.64-1.05c.07-.1.18.08.24.16-.3-1.54-1-2.11-1.09-3.21a.24.24,0,0,0,.1-.23c.38,1.19.67,2.14.62,2.06.25-.08,0-1,.56-.4a9.91,9.91,0,0,1-1.44-2.85.83.83,0,0,1,0-.15l.06.09a1.9,1.9,0,0,0-.23-.58,6.5,6.5,0,0,0-.18-.79c.17-.18-.24-1.13-.39-1.61-.25.13-.41-.51-.44.15,0-.09.06.08.17.39a.67.67,0,0,0,.1.19l0,0,.4,1.17a2.06,2.06,0,0,1-.52-1.26l-.65-.52c.17-.77,0-2.09.13-2.34-.62-1.4-1.21-3.39-2-4.14-.19-.39,0-.52,0-.7a4,4,0,0,0,.33.61c-.4-.78-.85-2.43-1.26-2.51-.18-1.09.51.48,0-.93l.17.16c-.35-3-2.38-4.28-2.67-7.63,0,.23,0,.34,0,.41-.83-3.66-2.67-7.23-3.31-10.9a3.14,3.14,0,0,0-.85-1.62l.22-.31-.67-.93c-.72-1.4-.13-2.78-1.19-4.5l-.12.3c-.18-.68-.8-2.09-.54-2.05a.47.47,0,0,1-.26-.45l.14-.06-.79-1.57c-.31-1.31.66,0,.09-1.87-.29-.67-1.08-1.83-1.1-1.53s.14.74,0,.81l-.29-.61c-.48,0-1.09-.31-.89,1.35l.62,1-.1.42-.31-.9a1.59,1.59,0,0,0,.49,1.18.83.83,0,0,0-.09.53l.77.92c-.13.19-.5-.36-.36.38.36.44.23-.6.63.18,0,.59-.25.49.12,1-.08.12-.2,0-.33-.21.32.5.53,1.42.85,1.62-.07.62.66,1.81.23,1.89a5.17,5.17,0,0,1,.81,1.34c-.79-.75.58,1.87,0,1.81.67.52,1,2.36,1.63,3.47a.48.48,0,0,1-.18-.27,6.76,6.76,0,0,1,.16,1.38c.4,0,.82,1,1.24,1.47-.1.94-.6-.36-.86,0,.28-.14.76,1.33.92,1,0,.7.07.58-.13,1,.5,0,.27.56.72,1,.07,1-.36.38.11,1.33C306.55,256.13,306.1,255.3,306.1,255.3Zm8.52,23.5h0l-.18-.49Zm.66,2c-.07-.25-.17-.55-.27-.87.07-.1.19-.05.25.15C315.16,280,315.26,280.48,315.28,280.8Zm.48-4.83c.14.31.12.43.08.49l-.21-.54-.05,0A.48.48,0,0,1,315.76,276Z"/><path class="cls-1" d="M315.22,275.52s0-.07-.06-.13v.21l.12.09Z"/><path class="cls-1" d="M334.45,208.41l0,0-.1,0Z"/><polygon class="cls-1" points="341.47 286.7 341.47 286.63 341.28 286.69 341.47 286.7"/><path class="cls-1" d="M324.52,214.43a.32.32,0,0,0-.17,0A.48.48,0,0,0,324.52,214.43Z"/><path class="cls-1" d="M320.44,217.32l-.63.33A6.64,6.64,0,0,0,320.44,217.32Z"/><path class="cls-1" d="M317.25,219.46a.28.28,0,0,0,0,.14h0Z"/><path class="cls-1" d="M367.75,215l.12.08C368.19,215.2,368,215.08,367.75,215Z"/><path class="cls-1" d="M352.65,204.81a5.31,5.31,0,0,1,.55.23C353,204.83,352.75,204.68,352.65,204.81Z"/><polygon class="cls-1" points="384.37 226.62 384.36 226.62 384.46 226.69 384.37 226.62"/><path class="cls-1" d="M353.88,205.54a2.52,2.52,0,0,0-.68-.5A4.1,4.1,0,0,0,353.88,205.54Z"/><path class="cls-1" d="M303.7,229.15l-.15.1a.07.07,0,0,1,0,.05Z"/><path class="cls-1" d="M303.56,229.3l-.15.14C303.48,229.39,303.55,229.34,303.56,229.3Z"/><path class="cls-1" d="M303.1,229.75l.31-.31C303.29,229.53,303.13,229.63,303.1,229.75Z"/><path class="cls-1" d="M307.89,226.26v-.11A.14.14,0,0,0,307.89,226.26Z"/><path class="cls-1" d="M309.13,225.33a7.33,7.33,0,0,0-1.26.72v.1C308,225.88,309,225.67,309.13,225.33Z"/><path class="cls-1" d="M315.09,222.56l-1.1.69c.25,0,.58-.1.11.27C315.62,222.82,313.69,223.52,315.09,222.56Z"/><path class="cls-1" d="M318.43,220.32c-.53.45.1.13.1.2C318.83,220.18,318.9,220.1,318.43,220.32Z"/><path class="cls-1" d="M341.91,203.27l.09.24C342.41,203.17,342,203.43,341.91,203.27Z"/><path class="cls-1" d="M346.31,199.88l-.57-.61a1.42,1.42,0,0,0-.31.06Z"/><polygon class="cls-1" points="348 203.36 347.79 203.25 348.57 203.7 348 203.36"/><path class="cls-1" d="M387.48,231.94l.06-.36C387.21,231.42,386.94,231.66,387.48,231.94Z"/><path class="cls-1" d="M383.83,249.92a1.49,1.49,0,0,0-.46,1.09A8.91,8.91,0,0,0,383.83,249.92Z"/><polygon class="cls-1" points="347.05 284.17 347.47 284.07 346.68 284.15 347.05 284.17"/><path class="cls-1" d="M261.42,114.79c.13.12.29,0,.13-.39l-.4-.17Z"/><path class="cls-1" d="M261.17,112c-.3-.4-.74-.83-.93-.45.45.35.35.5.87.86.16.37.12.7,0,.68.13.1.12.61.39.75a2.56,2.56,0,0,0-.53-1.8C261,111.9,261.1,112,261.17,112Z"/><path class="cls-1" d="M249.5,74.44l0,.25A1.29,1.29,0,0,0,249.5,74.44Z"/><path class="cls-1" d="M254.14,55.89c-.15.11-.19.18-.18.21C254.08,56,254.19,55.88,254.14,55.89Z"/><path class="cls-1" d="M257.72,53.73l-.21.13A.36.36,0,0,0,257.72,53.73Z"/><path class="cls-1" d="M249.5,74.44l-.11-.66C249.28,73.77,249.42,74.13,249.5,74.44Z"/><path class="cls-1" d="M258.73,107.11a1.27,1.27,0,0,0,.19.31l-.13-.3Z"/><path class="cls-1" d="M253.07,84.58l.07.19.17.11Z"/><path class="cls-1" d="M255.67,92.41c0-.18-.33-.16-.47-.19a.67.67,0,0,1,.31.33C255.56,92.54,255.61,92.49,255.67,92.41Z"/><path class="cls-1" d="M259.24,105l.11.21Z"/><path class="cls-1" d="M251.31,78.94a.18.18,0,0,0,.07-.1A.13.13,0,0,0,251.31,78.94Z"/><path class="cls-1" d="M271.62,115.91s0,0,0,0S271.56,115.91,271.62,115.91Z"/><path class="cls-1" d="M262.06,114.52l.13,0a.9.9,0,0,0,0-.16Z"/><path class="cls-1" d="M264.1,49.55h0C263.92,49.71,264,49.63,264.1,49.55Z"/><path class="cls-1" d="M319.2,52c-.49-.67,1.23.5.43-.43C319.66,51.68,318.5,51.25,319.2,52Z"/><path class="cls-1" d="M258.7,106.9l-.11-.32A2.24,2.24,0,0,0,258.7,106.9Z"/><path class="cls-1" d="M319.63,51.53h0l-.08-.1Z"/><path class="cls-1" d="M278.2,39.09a.42.42,0,0,0-.22,0A.4.4,0,0,0,278.2,39.09Z"/><path class="cls-1" d="M267.38,46.45l.29-.16Z"/><path class="cls-1" d="M283.46,34.78a1.23,1.23,0,0,0,.4-.26h-.08A.63.63,0,0,1,283.46,34.78Z"/><path class="cls-1" d="M289.18,30.62l-.14,0-.17.15Z"/><path class="cls-1" d="M293.1,115.77a1.14,1.14,0,0,1-.33-.25C292.88,115.72,291.84,115.79,293.1,115.77Z"/><path class="cls-1" d="M258.88,107.06a.26.26,0,0,1-.18-.16l.09.22S258.87,107.12,258.88,107.06Z"/><path class="cls-1" d="M282.39,32.81l.93-.62C283.05,32.35,282.71,32.58,282.39,32.81Z"/><path class="cls-1" d="M326.76,90l-.05.25A.49.49,0,0,0,326.76,90Z"/><path class="cls-1" d="M286,30.19a2,2,0,0,0,.62-.21.25.25,0,0,0,.06-.14Z"/><path class="cls-1" d="M292.77,115.52Z"/><path class="cls-1" d="M285.37,116.18c1.07,0,.51-.36.73-.57,1.28-.1.6.27,1,.46a18.62,18.62,0,0,1,2-.42c.05.06.16.08,0,.16.84-.3,2.5,0,3.48-.38a.24.24,0,0,1,.13.09.59.59,0,0,1-.15-.51c.48,0,.89-.23,1.07,0-.29,0-.32.09-.45.16l.5-.1c.45.35-.69.12-.69.38a15.07,15.07,0,0,1,2.88-.31c.15.34-1.76.12-.76.42l-1.16-.13c.89.54-.71,0,.11.54,1.53.09,1.71-.18,3.24-.08.34-.19-.12-.28.23-.47,2.16-.34,1.7.86,3.3.41a1.67,1.67,0,0,1,1.7-.43l-.38.38c1.48,0,.84-.55,2.39-.29-.27.15-1.16.12-.94.17,1,.3.71-.22,1.49-.22l.16.34c1.57-.05,3.31-.3,5.05-.36-.09.1-.39.21,0,.31a30.27,30.27,0,0,1,3.44,0c.58,0,1.16.07,1.73.12l.84.07,1.52.08.57-.13.12-.89c.1-.29.3-.49.23-.11.56-1.35-.13-.18,0-.87a1.17,1.17,0,0,1,.14-.35.25.25,0,0,1,.11-.13c.07,0,.13,0,.12.17a19.6,19.6,0,0,1,1.55-5.49v.31c.49-1.1-.15-1.47.45-2.44v.22c.92-2.44,1.55-5.25,2.59-7-.29-.49,1-2.4.46-2.74a15.72,15.72,0,0,0,1.54-2.81c.2-.52-.09-.91.06-1.58l.3.08,0-1,.51-.36.12-.65c-.09.24-.3.48-.37.42a4.54,4.54,0,0,1,1.13-2.26L328,86c.1.09,0,.48,0,.81.1-1.32.38-.12.47-1.33-.11.13-.15-.13-.2-.18a9.93,9.93,0,0,0,1-2.72l.14.25c.6-1.68,1.06-3.6,1.68-5.49-.31.65-.61.38-.46-.19l.38-.12c-.08-.42-.31.54-.3-.27.26-.7.5-.36.47.08l.18-.9c.1,0,.09.2.19.29-.08-.41.79-1.38.62-2l.11,0c.62-1.89.79-2.79,1.28-4.34-.26-.11,0-.7-.07-1.23.45-1.1,1.07-2.3,1.49-3.67.18-1-.13-.35-.15-.84.27,0,.69-1.36.63-.6l.68-2.22-1.74-1.17-1.43-.86c.13.22.32.41.16.4-.35-.19-.67-.61-.55-.68l.1,0c-2.21-1.13-4.13-3.92-6-4.64l.1.05-1.8-1c-.72-.58.57.17.1-.36-2-.93-2.75-2.07-4.37-2.9-.68-1.43-4-2.86-5.26-4.35v.21c-.5-.14-.42-.43-.68-.67,0,.14.33.44,0,.34-3.45-2.24-6.71-5.2-10-7.8-1.22-1-1.25.23-2.57-1.26l.64.06C300,35.28,297.63,33,295,31.53c.2,0,.26,0,.5.14-.38-.57-1.92-1.41-2-1.25-.37-.3,0-.21-.16-.46-.44-.5-1.49-.71-1.63-1.1,0-.07.19,0,.3.1a3.25,3.25,0,0,1-.34-.19l-.73-.52a5.09,5.09,0,0,0-1.06-.67q-.06.08,0,.06s0,.05.06.12l-.06-.05c-.4.25-.79.53-1.17.81l-.53.4-.3.24a6.68,6.68,0,0,1-1.19.82c-.3.6-1.67,1-1.56,1.49-.2-.41-1.84.89-2.3,1.48.12-.25-.59.26-.47-.06-.66.49-1.23,1-1,1.1-1.55.46-2.22,2.15-3.32,2.09-1.83,1.64-3.57,3.1-5.29,4.48-.2-.41,1.94-1.47,1.59-1.79a33.87,33.87,0,0,1-4.07,3.53c-.47.26.13-.34.23-.51-1.58,1.38-3.29,2.34-4.64,3.63,0,0,.11-.19.24-.33-.28.23-.72.45-.57.59l.26-.26c.64-.1-.81,1.36-.77,1.52.15-.84-1.58,1-1.21-.22-.18.18-.36.43-.24.51-.31.18-.45.18-.25-.16-1,.86-.49.76-1.45,1.46-.06-.08.11-.26.15-.42a5.09,5.09,0,0,1-1.61,1.54c0-.08-.13-.08.11-.25-1.37,1-2.07,2.14-3.71,3.1.2-.67-.61.27-.91,0l-.75.69.43-.09a17.71,17.71,0,0,1-1.89,1.55l.45-.51-1.31,1,.84-.44c-.61.69.36.33-.66.94a8.22,8.22,0,0,1-1.23.62h0a3.42,3.42,0,0,1-1.16,1c-.21,0-.14-.42-.27-.41-.17.5-1.64,1.29-1.89,1.88.1-.17,0-.33-.08-.33l-.14.42c-.38.18-.46.18-.49,0-1,.69.59.15-.72.85.08-.09,0-.08.19-.26a14.68,14.68,0,0,0-1.31,1l-.71.57-.78.6c.15.42.27.83.38,1.26-.19.62-.6-1.56-.75-1L244.4,63l.17.41.14.35.6,1.39a21.8,21.8,0,0,1,1,2.77l-.07-.35c.59.09.19,1.43.73,2.26-.11-.21-.38-.2-.3-.16A32.91,32.91,0,0,0,248.41,74l-.21-.19c.12.77.56,1.94.76,2.75.2.19.33.64.43.31.05,2.67,1.89,4.5,2,6.85-.09-.26-.31-.58-.25-.37l.72,1.79c.17-.21,0-.28.1-.72a3.17,3.17,0,0,1,.62,1.13c-.41-.78-.35.12-.36.51.05-.08.16,0,.22,0-.08,1.08.5,0,.66,1.41l-.14,0a7.93,7.93,0,0,1,.66,1.41c-.19.3-.29-.49-.51-.45.25.73,1,1.3.92,2.06-.17-.3-.32-.75-.49-1a3.08,3.08,0,0,0,.17,1.45v-.06l.27,1.3,0-.35c1,.71.73,1.85,1.57,3-.8-1.08-.3-.12-.62-.12,0,.34.09.86,0,.74.42.52.13,1,.74,1.77-.08.07.2.64-.08.58.33.74.11-.23.24-.21.7,1.08.52,2.91,1.51,4.47.66,1.41,1.06,1.58,1.65,2.89,0,.51-.46-.27-.46-.27a6,6,0,0,0,.65,2c-.13-.11-.15.06-.18.3.2.56.46.27.56,1a1.92,1.92,0,0,1-.56-.44c.3.64.69,1.23,1,1.89-.11.23-.38-.33-.57-.54.32.74.8,1.94,1.13,2.1l-.07-.52c.1.27-.17.21-.29,0-.41-.59-.22-1-.14-1.05l.22.47c.38-.68-.72-1.93-1-2.92l.53.28-.65-.9c0-.25.2-.46.42,0,0-.77-.34-.58-.32-1.25,0-.08,0,0,.07,0l-.34-.65c.13.11.25-.2.33.24-.18-1.31-1-1.89-.8-2.45l.06.09c-.69-1.67-.35-.07-1.1-1.24l.43-1.1-.34-.07c-.05-.18-.14-.54,0-.51-.42-.59-.09.15-.4-.17,0-.94-.89-2.3-.49-2.64-.32-.24.09.86-.35,0,.41-.42-.43-1-.45-1.87.33.15.43.93.41.08-.59-.33-.4-1.54-.69-2.17-.36.08-.61-1.38-1.08-2.44a29.65,29.65,0,0,0-.69-3.19h.07c-.41-.08-.69-1.16-1-1.9.22,0,.34.07.57.46l-.23-.72a2,2,0,0,1-.5-.8l.32.1a18.62,18.62,0,0,1-1.16-3.13c-.26,0-.36,1.2-.94,0,.11-.09.32-.21.49.11a1.52,1.52,0,0,1-.26-.61l.39.45c-.08-.59-.28-.23-.41-.69.2-.05,0-.37.2-.36s0,.42.18.57a3.67,3.67,0,0,1-.14-1.42c-.1.08-.26.08-.4-.28-.33-1,.12-.4,0-1-.2-.19-.27-.85-.55-.77a.6.6,0,0,1,.06-.51c-.28-.46-.79-2.31-.9-1.66l0,.14,0-.08h0c-.81-1.54-.94-3.44-1.59-5l.1,0A22.54,22.54,0,0,0,246.85,67c-.09-.29,0-.73.1-.64a5.47,5.47,0,0,1-.63-1.88c.41.69.06-.31.37.72A5.14,5.14,0,0,0,246,63c.17.14.19-.07.14-.36a.87.87,0,0,0-.14-.41,1.9,1.9,0,0,0-.08.34,3.23,3.23,0,0,1-.18-.52l.28-.18a.88.88,0,0,0,.22.25,1,1,0,0,0,.28-.09l.23-.16.28-.23c.36-.3.67-.63,1-.94a4.33,4.33,0,0,1,2-1.37c.31-.5-1,.53-.77,0a17.42,17.42,0,0,1,2.12-.89c1.16-.61.69-1.1,1.87-1.8-.21,0-.53-.15.23-.84.79-.52,1.23-.28.8.15-.18.14-.29.17-.3.13-.22.22-.52.5-.14.38l0-.17c.45-.18,1.5-1,1.37-.62.51-.51.13-.34-.34-.07,1.09-.58,1.55-1.12,2.63-1.76-.2.06-.43.06-.27-.06,1.57-1,.52-.65,1.5-1.43.68-.27.05.5,1-.36.69-.35.32.16.13.42a8.37,8.37,0,0,1,2.37-1.49l-.43.44a5,5,0,0,1,.74-.61h-.42c.31-.17.55-.35.6-.27.21-.34-.45-.15,0-.75.45-.18,1.08-.95,1.4-.79-1.26.79.32.16-.67.94a3.37,3.37,0,0,1,.73-.52c.06,0,0,.08-.07.16,1.31-.61.31-.68,1.51-1.53-.05.25.47.07.64-.1-.48.34-.4-.08,0-.5.84-.45.77-.69,1.17-1l-.49.28c.05-.25.44-.51.94-.94.13.08-.42.42-.2.34.41-.68,1.52-.71,2.22-1.48.46-.18.24.24.62.07.79-.86,1.14-.53,2-1.39-.42,0-.44.09.11-.59L271.08,44l.82-1c-.48.35-.92.86-1.24,1,.38-.51.36-.42,0-.42.86-.18,1.18-1.11,2.08-1.47l.32.5c1.3-.62,1.86-1.72,3.43-2.68l-.54.26c.06-.33.9-.69,1.32-1.12.07.19.42,0,.69,0-.11-.11,1.1-.78,1-1.2l.82-.27c1.26-.79,1-1.45,2.22-2.23-.22.42.39.16-.29.84.38-.28.75-.5.68-.61.29-.07.91-1,1.37-1.1.11-.19,0-.39.48-.69.08,0,.06.08.06.08s.6-.6.09-.5C286,33.05,287.7,31,289,30.65l.27-.22.16-.14.34-.3c.31.19.56.34,1.05.69-.08,0-.06.08-.19-.05.94.92,1,0,2.05,1.05.43.7-.73-.32-.42.05-.22.65,1.49,1,2.07,1.87l-.21-.11c.48.63,1.64.89,2.62,1.66,0,0-.08,0-.06.08A15.67,15.67,0,0,1,300,36.94c-.45,0-.52-.21-.49.13.45.29.12-.42,1,.15.2.31.76.87.68,1.15l-.83-.58c.21.59,1.07.76,1.46,1.12l-.15.08c1.28.87,1.53.57,2.86,1.57l-.07-.2c1,.22.49.63,1.39.92v.48c.54.28,1.92.93,2.84,1.5a15.77,15.77,0,0,1-2.51-1.06,7.72,7.72,0,0,0,2,1.19,2.11,2.11,0,0,1-.67-.39,7.25,7.25,0,0,1,2.59,1.31c-.62.5,2.38,2,2.73,3,1.86,1,3.29,2.54,5.29,3.94-.35-1,.58.4.82-.18.48.3.65.44.67.5l1.18,1.3c.22.39-.52-.2-.56-.06,1,.77.27.51.84,1.13,0-.28.54,0,1.06.48l-.64-.81c1.6.76.91,1.3,2.52,2.07l-.56-.17c.79.43,2.68,2,3.68,2.07.09.15.16.41-.18.21,1.69,1.33,4.17,2.39,5.35,3.62l-.22,0c.34.2.74.2,1,.6,0,0-.18,0-.09.13a.68.68,0,0,1,.44.08.37.37,0,0,1-.07.16.24.24,0,0,0-.15-.09,1.47,1.47,0,0,0-.09.17.64.64,0,0,0,0,.07s0,.18-.06.26a8.82,8.82,0,0,0-.22,1.19,18.28,18.28,0,0,1-.38,2.36c-.42-.14-1.06,1.38-1.39,2.14l-.05,0a60.48,60.48,0,0,0-1.47,6.26c-.88,1.19-1.65,4.46-2.61,6.52.19-.3.31.16.23.56-.25.47-.16,1.48-.52,1.28l.07-.18c-.5.26-.74,1.33-1,2.13l.46.3c-1.42,1.87-1.53,5.62-2.56,6.56,0,.55-.25,1.18-.29,1.73l-.26-.12a37.52,37.52,0,0,0-1.29,3.85l-.08-.41c-.34,1,.37,1.49.09,2.41l-.49.14c-.55,1.72-1.47,3.34-1.65,5.16-.05,0-.15-.14-.08-.42-.27.8-1.29,3-.64,2.92-.37-.09-.61,1.77-.75,2.75l-.22-.24a4.41,4.41,0,0,1-.09,2.08c-.12.25-.29.16-.11-.17-.42.82,0,.76-.45,1.76l0-.45c-.18.5-.16.5-.15.63s.06.22.09.47l0,.16a2.26,2.26,0,0,1-.72-.07c-.24-.07-.58-.16-.62-.28a1.53,1.53,0,0,1-1.19.29c-.07-.1.13-.16.23-.18-1.56-.19-2.32.32-3.4.05,0-.1-.09-.14-.18-.17,1.24,0,2.24,0,2.15,0,0-.25-1-.3-.21-.65a10.24,10.24,0,0,1-3.15.49.43.43,0,0,1-.13-.09l.1,0a2.07,2.07,0,0,0-.62,0,5.66,5.66,0,0,0-.81-.07c-.12-.22-1.15-.12-1.65-.13,0,.28-.61.24,0,.47-.08,0,.1,0,.43,0a.66.66,0,0,0,.21,0l0,0,1.24,0a2.11,2.11,0,0,1-1.36.11c-.26.18-.54.36-.7.45-.68-.39-2-.6-2.18-.84-1.53.15-3.6.1-4.56.63-.43.07-.5-.15-.66-.24a3.12,3.12,0,0,0,.68-.12c-.87.14-2.57,0-2.78.42-1.09-.16.62-.34-.88-.28l.2-.11c-3-.59-4.81.94-8.08.19.22,0,.34.06.38.13-3.73-.34-7.7.31-11.38-.22a3.17,3.17,0,0,0-1.81.31l-.22-.3-1.1.34c-1.55.26-2.68-.74-4.65-.25l.26.2c-.71,0-2.24.12-2.12-.11a.51.51,0,0,1-.51.1l0-.16-1.73.27c-1.34-.11.21-.62-1.75-.65-.73.06-2.07.46-1.8.56s.75.1.77.26l-.66.08c-.12.47-.64.94,1,1.27l1.14-.29.37.23h-1a1.56,1.56,0,0,0,1.27-.1.78.78,0,0,0,.48.25l1.12-.45c.13.18-.5.36.25.46.52-.2-.5-.4.36-.54.55.21.39.38,1,.2.09.12-.05.2-.3.25.57-.14,1.51-.06,1.8-.31.57.27,1.92-.06,1.87.38a4.79,4.79,0,0,1,1.52-.37c-.95.53,2,0,1.71.6.71-.47,2.56-.21,3.81-.47a.63.63,0,0,1-.32.09,6.47,6.47,0,0,1,1.36.27c.09-.39,1.19-.48,1.78-.73.87.38-.52.46-.25.83,0-.32,1.5-.32,1.21-.58.66.23.57.11.91.43.11-.49.61-.08,1.16-.38,1,.24.25.46,1.3.31C286.31,116,285.37,116.18,285.37,116.18Zm25-.84h0l-.52,0Zm2.1,0h-.91c-.08-.1,0-.2.21-.19C311.66,115.19,312.16,115.25,312.47,115.33Zm-4.44-2c.33,0,.44,0,.48.08l-.58,0,0,0A.4.4,0,0,1,308,113.38Z"/><path class="cls-1" d="M307.43,113.75l-.14,0,.2.07.12-.09Z"/><path class="cls-1" d="M249.55,74.73v0a.31.31,0,0,1,0,.1S249.54,74.76,249.55,74.73Z"/><polygon class="cls-1" points="326.17 92.25 326.1 92.23 326.11 92.42 326.17 92.25"/><path class="cls-1" d="M252.2,86a.54.54,0,0,0,0,.17S252.2,86.12,252.2,86Z"/><path class="cls-1" d="M253.69,90.81l.12.7A7,7,0,0,0,253.69,90.81Z"/><path class="cls-1" d="M254.74,94.5a.3.3,0,0,0,.14,0h0Z"/><path class="cls-1" d="M266.06,45.09a1.27,1.27,0,0,0,.12-.1C266.43,44.74,266.25,44.9,266.06,45.09Z"/><path class="cls-1" d="M251.74,56.3c.13-.15.25-.3.4-.45C251.86,56,251.66,56.17,251.74,56.3Z"/><polygon class="cls-1" points="282.29 32.88 282.29 32.89 282.39 32.81 282.29 32.88"/><path class="cls-1" d="M252.82,55.36a2.65,2.65,0,0,0-.68.49A4,4,0,0,0,252.82,55.36Z"/><path class="cls-1" d="M259.77,110.38l0,.18a0,0,0,0,1,.05,0Z"/><path class="cls-1" d="M259.86,110.57l.1.18C259.93,110.66,259.9,110.58,259.86,110.57Z"/><path class="cls-1" d="M260.16,111.14l-.2-.39A.7.7,0,0,0,260.16,111.14Z"/><path class="cls-1" d="M258.32,105.5l-.12,0A.16.16,0,0,0,258.32,105.5Z"/><path class="cls-1" d="M257.81,104a6.71,6.71,0,0,0,.3,1.42l.09,0C258,105.29,258.08,104.32,257.81,104Z"/><path class="cls-1" d="M257,97.52l.32,1.25c0-.25.08-.57.29,0C257.43,97.1,257.5,99.14,257,97.52Z"/><path class="cls-1" d="M255.93,93.65c.26.64.14-.06.21,0C255.91,93.22,255.86,93.12,255.93,93.65Z"/><path class="cls-1" d="M247,66.05l.26,0C247,65.54,247.13,66.06,247,66.05Z"/><path class="cls-1" d="M245.1,60.81l-.76.36c0,.11,0,.22,0,.32Z"/><polygon class="cls-1" points="248.93 60.28 248.76 60.45 249.43 59.85 248.93 60.28"/><path class="cls-1" d="M288.31,31.56,288,31.4C287.73,31.66,287.88,32,288.31,31.56Z"/><path class="cls-1" d="M304.28,40.59a1.57,1.57,0,0,0,.9.78A10.2,10.2,0,0,0,304.28,40.59Z"/><polygon class="cls-1" points="325.49 86.16 325.52 85.72 325.36 86.51 325.49 86.16"/><path class="cls-1" d="M137.94,115.25c.15-.08.07-.28-.33-.24l-.29.33Z"/><path class="cls-1" d="M135.24,114.64c-.48.16-1,.44-.72.75.47-.32.59-.19,1.09-.57.4,0,.7.11.64.23.14-.08.62.07.84-.13a2.56,2.56,0,0,0-1.88-.06C135.06,114.79,135.2,114.7,135.24,114.64Z"/><path class="cls-1" d="M95.88,114.12l.25,0Z"/><path class="cls-1" d="M79.67,104c.06.17.12.24.15.24C79.75,104.06,79.68,103.93,79.67,104Z"/><path class="cls-1" d="M78.73,99.91l0,.24A.39.39,0,0,0,78.73,99.91Z"/><path class="cls-1" d="M95.88,114.12l-.65-.1C95.18,114.13,95.56,114.1,95.88,114.12Z"/><path class="cls-1" d="M129.81,115.44a1.48,1.48,0,0,0,.35-.09l-.33,0S129.82,115.42,129.81,115.44Z"/><path class="cls-1" d="M106.63,113.86h.2l.16-.14Z"/><path class="cls-1" d="M114.88,113.81c-.19,0-.25.26-.33.39a.69.69,0,0,1,.41-.2A.32.32,0,0,0,114.88,113.81Z"/><path class="cls-1" d="M128,114.3l.23,0Z"/><path class="cls-1" d="M100.72,113.8a.21.21,0,0,0-.07-.11S100.68,113.76,100.72,113.8Z"/><path class="cls-1" d="M142.15,105.9h0S142.13,106,142.15,105.9Z"/><path class="cls-1" d="M137.88,114.57l0-.14a.61.61,0,0,0-.14-.07Z"/><path class="cls-1" d="M76.72,92.55v0C76.81,92.76,76.77,92.66,76.72,92.55Z"/><path class="cls-1" d="M96,40.89c-.79.26.85-1-.27-.54C95.92,40.37,95.15,41.34,96,40.89Z"/><path class="cls-1" d="M129.59,115.4h0Z"/><path class="cls-1" d="M95.77,40.35h0l-.11,0Z"/><path class="cls-1" d="M71.13,75.9a.43.43,0,0,0-.06.21S71.12,76.05,71.13,75.9Z"/><path class="cls-1" d="M74.79,88.47l-.06-.32A2,2,0,0,0,74.79,88.47Z"/><path class="cls-1" d="M68.65,69.57a1.09,1.09,0,0,0-.12-.46.19.19,0,0,0,0,.08A.63.63,0,0,1,68.65,69.57Z"/><path class="cls-1" d="M66.47,62.84s0,.1,0,.15l.09.2Z"/><path class="cls-1" d="M148.66,85.43a.93.93,0,0,1-.34.23C148.55,85.62,148.29,86.63,148.66,85.43Z"/><path class="cls-1" d="M129.8,115.28a.24.24,0,0,1-.21.12h.24S129.86,115.31,129.8,115.28Z"/><path class="cls-1" d="M66.46,70l-.31-1.08C66.22,69.2,66.33,69.6,66.46,70Z"/><path class="cls-1" d="M134.54,45.44l.22.13A.51.51,0,0,0,134.54,45.44Z"/><path class="cls-1" d="M65.08,65.74a2.43,2.43,0,0,0,0-.66A.5.5,0,0,0,65,65Z"/><path class="cls-1" d="M148.32,85.66Z"/><path class="cls-1" d="M146.67,92.9c.34-1-.19-.59-.32-.87.29-1.24.44-.48.75-.83.16-.79,0-1.48.22-2,.07,0,.13-.12.16,0,0-.89.76-2.39.71-3.43a.4.4,0,0,1,.13-.1.57.57,0,0,1-.53,0c.14-.46.05-.92.34-1-.1.28,0,.33,0,.49l0-.51c.47-.33-.1.69.15.77a14.13,14.13,0,0,1,.6-2.83c.37,0-.44,1.71.16.85l-.48,1.06c.78-.68-.25.66.54.06.57-1.42.37-1.68.93-3.1-.07-.38-.3,0-.37-.36.35-2.17,1.34-1.36,1.4-3a1.68,1.68,0,0,1,.12-1.75l.25.48c.49-1.39-.27-1,.46-2.37.06.31-.24,1.15-.13.95.6-.86,0-.74.25-1.48l.38,0c.43-1.52.73-3.25,1.21-4.93.07.13.08.44.31.09a26.42,26.42,0,0,1,1-3.28c.21-.55.43-1.09.64-1.61l.33-.78.54-1.42.06-.59-.81-.38c-.24-.18-.37-.44,0-.26-1.12-1-.21.08-.84-.24a1.29,1.29,0,0,1-.29-.23.42.42,0,0,1-.09-.15c0-.08.05-.12.2-.06A19.55,19.55,0,0,1,150,56.82l.29.1c-.9-.8-1.44-.31-2.18-1.18l.2.08c-2-1.63-4.51-3.1-5.86-4.63-.55.12-2-1.66-2.45-1.28a16.79,16.79,0,0,0-2.2-2.34c-.44-.35-.89-.19-1.49-.54l.17-.26-.95-.29-.19-.6-.57-.31c.2.16.37.43.28.48-.9-.48-1.87-1.62-1.79-1.77l-2.09-1.19c.11-.07.46.13.76.25-1.21-.49,0-.4-1.11-.85.09.15-.18.1-.23.13a10.45,10.45,0,0,0-2.28-1.79l.27-.06c-1.4-1.09-3.08-2.12-4.69-3.29.52.5.17.7-.33.39v-.41c-.43-.05.42.46-.35.21-.58-.47-.19-.6.22-.43l-.8-.44c0-.11.21,0,.33-.1-.42-.05-1.07-1.18-1.71-1.21l0-.11c-1.61-1.17-2.41-1.61-3.73-2.55-.19.21-.67-.22-1.2-.32a38.5,38.5,0,0,0-3-2.55c-.89-.48-.37,0-.84-.12.09-.25-1.08-1.07-.37-.78l-1.91-1.33L108.54,29l-1.26,1.1c.25-.05.49-.17.43,0-.29.26-.79.44-.81.31l.06-.09c-1.75,1.75-5,2.72-6.27,4.3l.07-.09-1.47,1.42c-.78.51.34-.49-.31-.21-1.51,1.63-2.82,2-4.11,3.26-1.57.21-4,2.94-5.76,3.66l.19.08c-.29.42-.53.26-.85.44.13.08.52-.18.34.07-3.2,2.59-7,4.78-10.52,7.12-1.27.87-.16,1.26-2,2.06l.26-.59c-2.29,2.14-5.15,3.72-7.42,5.78.1-.17,0-.25.29-.42-.66.18-1.93,1.39-1.82,1.55-.4.26-.2-.08-.49,0C66.49,59,66,60,65.55,60c-.07,0,.1-.17.19-.25a2.55,2.55,0,0,1-.28.26l-.72.54a4.15,4.15,0,0,0-1,.8s0,.06,0,0,.05,0,.13,0l-.07,0c.12.45.26.91.41,1.36l.22.62.13.37a5.87,5.87,0,0,1,.42,1.38c.48.47.46,1.91.94,2-.46.06.27,2,.69,2.64-.2-.19.06.64-.2.43.26.78.57,1.47.75,1.26,0,1.61,1.35,2.77,1,3.8,1,2.25,1.84,4.36,2.62,6.42-.45.06-.79-2.3-1.21-2.07a34,34,0,0,1,2.1,5c.1.53-.28-.23-.41-.37.82,1.92,1.21,3.85,2,5.54,0,0-.14-.17-.24-.34.13.34.21.83.39.73l-.17-.33c.11-.64,1,1.19,1.21,1.21-.75-.41.43,1.79-.58,1.08.11.22.3.47.41.38.07.35,0,.48-.23.19.51,1.21.58.7.94,1.83-.1,0-.21-.19-.36-.27a5,5,0,0,1,1,2c-.07,0-.11.09-.2-.19.56,1.63,1.4,2.63,1.8,4.49-.58-.4.07.66-.26.87l.42.93,0-.44a17.47,17.47,0,0,1,.89,2.28l-.35-.59.58,1.57-.15-.94c.46.79.42-.24.68.92a8.59,8.59,0,0,1,.21,1.36h0a3.5,3.5,0,0,1,.62,1.44c-.06.19-.43,0-.48.12.44.32.73,2,1.22,2.38-.13-.15-.32-.1-.34,0l.35.27c0,.42,0,.49-.14.47.34,1.2.33-.52.59.94-.05-.1-.07,0-.18-.25a12.6,12.6,0,0,0,.5,1.54l.32.85.33.92c.44,0,.87,0,1.31,0,.53.38-1.67.09-1.16.41l1.15,0,.44,0,.37,0,1.52-.14a21.1,21.1,0,0,1,3-.12l-.35,0c.26-.53,1.41.26,2.37,0-.24,0-.31.29-.25.23A34.17,34.17,0,0,0,95.1,115l-.25.13c.77.12,2,.07,2.85.14.24-.14.72-.12.43-.32,2.55.78,4.86-.41,7.13.23-.27,0-.65.12-.43.12l1.92-.12c-.15-.23-.25-.14-.65-.32a3,3,0,0,1,1.26-.25c-.87.16,0,.38.38.5-.06-.07.07-.14,0-.22,1,.42.17-.46,1.54-.18l-.07.12a7.72,7.72,0,0,1,1.54-.19c.23.27-.55.12-.58.34.78,0,1.54-.5,2.24-.24-.33.08-.81.08-1.14.15a3.15,3.15,0,0,0,1.43.29h-.06l1.32.14-.33-.08c1-.7,2-.13,3.3-.59-1.28.44-.21.25-.31.56.33.08.84.18.7.26.62-.24,1,.19,1.91-.16,0,.09.66,0,.52.25.81-.08-.19-.17-.12-.29,1.25-.34,2.93.4,4.72-.06,1.54-.18,1.82-.51,3.26-.68.48.16-.4.36-.4.36a5.7,5.7,0,0,0,2.1,0c-.15.09,0,.16.23.27.59,0,.39-.35,1.17-.21a1.87,1.87,0,0,1-.59.39c.7-.09,1.38-.27,2.1-.36.19.17-.43.26-.68.37a6.52,6.52,0,0,0,2.34-.42l-.52-.1c.3,0,.15.23-.06.28-.7.21-1-.09-1-.19l.51-.06c-.53-.57-2.06.09-3.09.06l.43-.42-1.06.35c-.22-.11-.38-.34.13-.41-.74-.2-.65.15-1.29-.08-.07,0,0-.05,0-.07l-.72.12c.14-.08-.12-.29.32-.23-1.3-.24-2.09.31-2.58,0l.11,0c-1.8.14-.17.31-1.52.67l-.91-.76-.18.31c-.18,0-.55,0-.48-.16-.69.21.11.13-.29.33-.89-.28-2.46.13-2.66-.36-.32.24.85.18-.1.35-.27-.53-1.1.08-1.92-.16.25-.27,1-.12.21-.36-.49.45-1.59-.1-2.28,0,0,.37-1.5.16-2.65.28a28.53,28.53,0,0,0-3.25-.33l0-.07c-.2.37-1.31.3-2.12.38,0-.22.18-.31.61-.41h-.75a2,2,0,0,1-.91.22l.19-.28a16.66,16.66,0,0,1-3.33.14c-.08.26,1,.72-.34.89-.06-.14-.11-.38.25-.44a1.56,1.56,0,0,1-.65.06l.54-.23c-.59-.1-.3.19-.78.17,0-.2-.35-.14-.28-.3s.41.08.59,0a4.07,4.07,0,0,1-1.39-.3c0,.11,0,.26-.39.29-1,0-.34-.24-.93-.34-.25.13-.89,0-.91.29-.29,0-.35-.14-.46-.22-.53.13-2.44,0-1.85.35l.13,0h-.09c-1.71.3-3.55-.16-5.25,0v-.1a25.27,25.27,0,0,0-3,.28c-.3,0-.71-.18-.58-.29a5.61,5.61,0,0,1-2,0c.78-.17-.27-.16.8-.13a5.2,5.2,0,0,0-2.32,0c.19-.13,0-.21-.29-.25a.94.94,0,0,0-.44,0,1.41,1.41,0,0,0,.3.19,3.41,3.41,0,0,1-.55,0l-.08-.32a1,1,0,0,0,.31-.14.86.86,0,0,0,0-.29,1.24,1.24,0,0,0-.08-.27l-.13-.33c-.18-.44-.39-.84-.59-1.23a4.32,4.32,0,0,1-.67-2.37c-.39-.45.19,1.11-.22.73a15.59,15.59,0,0,1-.19-2.28c-.22-1.3-.84-1-1.14-2.34-.05.2-.31.46-.73-.47-.25-.92.12-1.27.39-.73.08.22.08.33,0,.34.14.27.31.64.31.24l-.15-.08c0-.48-.44-1.72-.16-1.49-.33-.65-.28-.23-.18.29-.21-1.21-.58-1.81-.86-3,0,.21-.07.42-.13.24-.43-1.8-.47-.71-.9-1.87,0-.73.49.1,0-1-.12-.77.24-.25.43,0a8.51,8.51,0,0,1-.68-2.71l.28.54a5.42,5.42,0,0,1-.35-.89l-.12.4c-.07-.35-.16-.63-.06-.66-.26-.3-.29.39-.72-.23,0-.49-.56-1.33-.31-1.58.35,1.44.25-.25.68.92a3.27,3.27,0,0,1-.27-.85c0-.06.08,0,.13.12-.17-1.44-.54-.51-1-1.91.23.12.21-.43.1-.64.18.56-.19.36-.49-.12-.16-.94-.41-.94-.55-1.41l.11.55c-.22-.13-.35-.58-.6-1.19.11-.09.27.54.26.3-.53-.6-.21-1.67-.72-2.57,0-.48.3-.15.25-.56-.57-1-.15-1.25-.7-2.33-.12.4,0,.44-.53-.29l.77,1.82-.72-1.1c.18.57.53,1.15.6,1.5-.37-.51-.29-.47-.39-.14.09-.88-.7-1.47-.76-2.44l.57-.15c-.18-1.43-1.06-2.3-1.49-4.09l.09.6c-.3-.16-.38-1.07-.66-1.61.21,0,.16-.38.2-.66-.13.08-.4-1.28-.83-1.32v-.86c-.35-1.44-1-1.43-1.43-2.81.34.35.27-.31.71.55-.14-.46-.24-.87-.37-.84,0-.3-.66-1.17-.62-1.64-.15-.17-.36-.17-.51-.68,0-.07.09,0,.09,0s-.38-.75-.45-.24c.14-1.58-1.3-3.88-1.2-5.25l-.12-.32-.09-.2-.18-.42c.28-.24.5-.43,1-.79,0,.09.06.08-.1.17,1.16-.61.32-.93,1.63-1.63.8-.18-.53.6-.08.42.55.41,1.39-1.12,2.42-1.39l-.17.17c.74-.27,1.35-1.29,2.39-2,0,0,0,.09.05.09a15.85,15.85,0,0,1,2.64-2.58c-.15.42-.36.43,0,.5.41-.34-.37-.24.45-.93.36-.09,1.06-.44,1.3-.28l-.81.6c.63,0,1.05-.77,1.52-1l0,.17c1.22-.95,1-1.28,2.37-2.23h-.21c.5-.85.74-.27,1.3-1l.46.16c.43-.43,1.47-1.54,2.3-2.23a16.17,16.17,0,0,1-1.78,2,8.09,8.09,0,0,0,1.75-1.55,2.19,2.19,0,0,1-.58.52,7.22,7.22,0,0,1,2-2.06c.28.74,2.61-1.66,3.66-1.68C91.14,44,93.05,43.14,95,41.67c-1,0,.57-.44.09-.84.44-.37.62-.49.68-.49l1.61-.71c.43-.1-.36.42-.24.5,1-.69.58-.09,1.34-.44-.26-.08.17-.51.79-.86l-1,.36c1.21-1.29,1.51-.47,2.74-1.76l-.33.48c.66-.62,2.68-1.95,3.11-2.86.17,0,.43,0,.14.24,1.78-1.2,3.56-3.23,5.09-4l0,.22c.29-.27.41-.65.88-.81,0,.06,0,.19.1.13a.78.78,0,0,1,.21-.39.28.28,0,0,1,.13.11.3.3,0,0,0-.13.12.92.92,0,0,0,.13.14l.06,0,.23.14a11.31,11.31,0,0,0,1.06.58,16.55,16.55,0,0,1,2.13,1.09c-.26.35,1,1.43,1.61,2l-.06,0a58,58,0,0,0,5.5,3.33c.86,1.21,3.73,3,5.4,4.5-.24-.27.24-.25.59-.05.38.39,1.37.62,1.06.89l-.15-.11c.09.55,1,1.11,1.72,1.61l.42-.34c1.35,1.93,4.87,3.19,5.45,4.46.51.21,1,.6,1.56.81l-.19.21A37.44,37.44,0,0,0,140,52.43l-.42-.06c.82.63,1.53.11,2.32.66l0,.51c1.47,1.05,2.73,2.43,4.4,3.17-.06,0-.18.1-.42-.06.68.51,2.49,2.17,2.58,1.52-.21.31,1.49,1.12,2.37,1.56l-.28.14a4.31,4.31,0,0,1,1.94.72c.2.19.06.33-.19,0,.65.66.73.21,1.53,1l-.44-.09c.43.32.43.3.56.33s.22,0,.47.06l.14.08a2.11,2.11,0,0,1-.29.66c-.13.21-.33.5-.45.5a1.59,1.59,0,0,1-.1,1.22c-.11,0-.1-.16-.1-.27-.66,1.43-.41,2.31-1,3.25a.23.23,0,0,0-.22.12c.39-1.18.72-2.13.71-2-.25-.08-.6.86-.69,0a10.22,10.22,0,0,1-.51,3.16.54.54,0,0,1-.12.09v-.1a1.89,1.89,0,0,0-.15.6,4.73,4.73,0,0,0-.32.74c-.24,0-.47,1.06-.63,1.53.28,0,0,.66.44.15,0,.07,0-.1.09-.42a1.07,1.07,0,0,0,0-.21v0l.37-1.19a2.08,2.08,0,0,1-.32,1.33c.09.3.18.62.22.8-.59.53-1.2,1.72-1.48,1.82-.33,1.5-1,3.45-.81,4.53-.07.43-.3.42-.43.55a3.46,3.46,0,0,0,.1-.69c-.14.87-.75,2.47-.46,2.78-.49,1-.13-.69-.54.75l0-.22c-1.48,2.63-.59,4.86-2.33,7.74.12-.2.17-.3.25-.33-1.47,3.45-2.08,7.42-3.73,10.77a3.24,3.24,0,0,0-.26,1.81l-.36.12v1.15c-.24,1.55-1.54,2.32-1.69,4.34l.27-.18c-.25.66-.57,2.16-.76,2a.48.48,0,0,1-.05.51l-.16,0-.28,1.73c-.52,1.25-.53-.39-1.17,1.46-.16.72-.2,2.12,0,1.89s.32-.68.48-.65l-.13.65c.41.26.7.9,1.52-.56l.08-1.17.33-.28-.29.92a1.63,1.63,0,0,0,.3-1.25.74.74,0,0,0,.38-.37l-.07-1.21c.21-.07.18.59.51-.09,0-.56-.54.35-.4-.51.37-.46.48-.25.51-.92.14,0,.17.11.14.36,0-.58.41-1.45.27-1.8.42-.46.53-1.85.93-1.66a4.87,4.87,0,0,1,.12-1.57c.21,1.07.64-1.85,1.1-1.44-.24-.82.59-2.49.72-3.76a.47.47,0,0,1,0,.33,6.72,6.72,0,0,1,.68-1.22c-.34-.2-.09-1.28-.14-1.91.63-.71.28.64.71.49-.32,0,.16-1.52-.18-1.33.42-.55.28-.5.7-.73-.44-.26.11-.61,0-1.22.52-.84.51-.09.7-1.14C146.79,92,146.67,92.9,146.67,92.9Zm6.92-24h0l-.14.5Zm.64-2c-.09.24-.19.54-.29.87-.12,0-.19-.07-.12-.27C153.85,67.6,154.06,67.15,154.23,66.87ZM151,70.5c.06-.33.15-.42.22-.45l-.15.57,0,0A.28.28,0,0,1,151,70.5Z"/><path class="cls-1" d="M151.17,71.18a.93.93,0,0,1,0,.14l.12-.17-.05-.14Z"/><path class="cls-1" d="M96.18,114.17h-.05l.09,0A.07.07,0,0,1,96.18,114.17Z"/><polygon class="cls-1" points="136.51 46.71 136.47 46.77 136.66 46.82 136.51 46.71"/><path class="cls-1" d="M107.74,115.13a.29.29,0,0,0,.16.08A.44.44,0,0,0,107.74,115.13Z"/><path class="cls-1" d="M112.74,115.2l.71.1A5.36,5.36,0,0,0,112.74,115.2Z"/><path class="cls-1" d="M116.58,115.34a.49.49,0,0,0,.08-.12h0Z"/><path class="cls-1" d="M73.08,89.3a.58.58,0,0,0,0-.14C72.87,88.85,73,89.07,73.08,89.3Z"/><path class="cls-1" d="M79.33,106.38a4.33,4.33,0,0,1-.31-.51C79.1,106.18,79.17,106.43,79.33,106.38Z"/><polygon class="cls-1" points="66.49 70.1 66.5 70.1 66.46 69.98 66.49 70.1"/><path class="cls-1" d="M78.76,105.06a2.75,2.75,0,0,0,.26.81A3.47,3.47,0,0,0,78.76,105.06Z"/><path class="cls-1" d="M133.23,115.46l.19,0a.08.08,0,0,1,0,0Z"/><path class="cls-1" d="M133.44,115.43l.21,0C133.55,115.4,133.47,115.4,133.44,115.43Z"/><path class="cls-1" d="M134.08,115.33l-.43.07A.74.74,0,0,0,134.08,115.33Z"/><path class="cls-1" d="M128.15,115.33l-.06.11A.17.17,0,0,0,128.15,115.33Z"/><path class="cls-1" d="M126.6,115.36a6.66,6.66,0,0,0,1.44.16l.05-.08C127.85,115.59,127,115.19,126.6,115.36Z"/><path class="cls-1" d="M120.15,114.1l1.3.09c-.23-.11-.53-.26.06-.28C119.88,113.58,121.85,114.15,120.15,114.1Z"/><path class="cls-1" d="M116.14,114c.69,0,0-.16,0-.22C115.72,113.83,115.62,113.85,116.14,114Z"/><path class="cls-1" d="M87.11,114l.07-.26C86.65,113.73,87.18,113.79,87.11,114Z"/><path class="cls-1" d="M81.56,114.09l.1.83a1.35,1.35,0,0,0,.3.14Z"/><polygon class="cls-1" points="82.24 110.29 82.35 110.5 81.98 109.68 82.24 110.29"/><path class="cls-1" d="M67.09,64l-.25.26C67,64.54,67.37,64.51,67.09,64Z"/><path class="cls-1" d="M80.62,51.56a1.55,1.55,0,0,0,1-.61A11.27,11.27,0,0,0,80.62,51.56Z"/><polygon class="cls-1" points="130.51 45.47 130.1 45.31 130.8 45.7 130.51 45.47"/><path class="cls-1" d="M100.23,232.83c0-.17-.25-.15-.34.25l.23.37Z"/><path class="cls-1" d="M98.81,235.22c0,.5.1,1.1.48.91-.15-.55,0-.62-.2-1.21.09-.4.32-.64.42-.54,0-.16.26-.57.13-.84a2.55,2.55,0,0,0-.63,1.77C98.89,235.43,98.85,235.27,98.81,235.22Z"/><path class="cls-1" d="M86.15,272.49l.12-.23A1.61,1.61,0,0,0,86.15,272.49Z"/><path class="cls-1" d="M71.49,284.77c.19,0,.27,0,.28-.07C71.59,284.72,71.45,284.74,71.49,284.77Z"/><path class="cls-1" d="M67.33,284.41l.25,0A.37.37,0,0,0,67.33,284.41Z"/><path class="cls-1" d="M86.15,272.49l-.3.59C85.94,273.15,86,272.78,86.15,272.49Z"/><path class="cls-1" d="M97.89,240.63a1.61,1.61,0,0,0,0-.37l-.07.33Z"/><path class="cls-1" d="M89.22,262.18l.06-.19a.77.77,0,0,0-.08-.19Z"/><path class="cls-1" d="M91.72,254.32c-.07.17.18.32.27.43a.64.64,0,0,1-.06-.45A.33.33,0,0,0,91.72,254.32Z"/><path class="cls-1" d="M96.23,242l0-.23Z"/><path class="cls-1" d="M87.34,267.78a.21.21,0,0,0-.12,0S87.29,267.81,87.34,267.78Z"/><path class="cls-1" d="M92.63,225.94s0,0,0,0S92.68,226,92.63,225.94Z"/><path class="cls-1" d="M99.55,232.68l-.12-.06-.11.11Z"/><path class="cls-1" d="M59.71,284.05h0C59.94,284,59.83,284,59.71,284.05Z"/><path class="cls-1" d="M16.55,249.7c0,.83-.7-1.12-.6.1C16,249.66,16.7,250.69,16.55,249.7Z"/><path class="cls-1" d="M97.79,240.82l-.11.32A2,2,0,0,0,97.79,240.82Z"/><path class="cls-1" d="M16,249.8h0v0Z"/><path class="cls-1" d="M42.15,284.21a.64.64,0,0,0,.18.13S42.29,284.27,42.15,284.21Z"/><path class="cls-1" d="M55.23,284.61l-.32,0Z"/><path class="cls-1" d="M35.36,284.61a1.17,1.17,0,0,0-.47,0l.07,0A.64.64,0,0,1,35.36,284.61Z"/><path class="cls-1" d="M28.29,284.61l.13.06.23,0Z"/><path class="cls-1" d="M75.17,213.42a1,1,0,0,1,.12.39C75.32,213.59,76.2,214.14,75.17,213.42Z"/><path class="cls-1" d="M97.74,240.58a.27.27,0,0,1,.05.24l0-.23S97.77,240.54,97.74,240.58Z"/><path class="cls-1" d="M35.08,286.83l-1.13,0C34.27,286.81,34.67,286.83,35.08,286.83Z"/><path class="cls-1" d="M32.78,214.5l.19-.18A.42.42,0,0,0,32.78,214.5Z"/><path class="cls-1" d="M30.62,286.83a2.31,2.31,0,0,0-.63-.2s-.1,0-.13.08Z"/><path class="cls-1" d="M75.29,213.82h0Z"/><path class="cls-1" d="M81.67,217.63c-.87-.64-.62,0-.93,0-1.1-.66-.32-.57-.56-1-.7-.39-1.4-.48-1.87-.84,0-.08-.08-.16.07-.14-.85-.26-2-1.46-3-1.74a.32.32,0,0,1,0-.15.57.57,0,0,1-.18.5c-.39-.28-.86-.34-.86-.64.23.18.31.12.47.14l-.47-.21c-.16-.55.62.3.78.09a14.75,14.75,0,0,1-2.51-1.44c.08-.37,1.49.94.86.11l.86.78c-.4-1,.55.45.23-.49-1.18-1-1.49-.87-2.66-1.85-.39-.05-.08.3-.46.25-2-1-.88-1.7-2.44-2.27a1.68,1.68,0,0,1-1.63-.66l.54-.08c-1.18-.9-1-.05-2.12-1.17.32,0,1,.58.87.41-.64-.83-.71-.24-1.33-.69l.07-.37c-1.31-.89-2.86-1.71-4.31-2.68.14,0,.45.06.18-.26a28.44,28.44,0,0,1-2.8-2c-.45-.37-.9-.74-1.33-1.11l-.64-.55-1.18-1-.54-.24-.62.65c-.25.18-.53.22-.25-.05-1.25.77,0,.22-.49.72A2,2,0,0,1,53,200a.45.45,0,0,1-.17,0c-.08,0-.09-.09,0-.21a19.35,19.35,0,0,1-4.48,3.53l.19-.25c-1,.61-.74,1.28-1.8,1.71l.14-.16c-2.18,1.42-4.34,3.33-6.21,4.14-.06.56-2.19,1.36-2,1.93a16.46,16.46,0,0,0-2.9,1.37c-.47.31-.46.79-1,1.25l-.2-.24-.56.81h-.63l-.47.44c.22-.14.52-.21.54-.11a4.59,4.59,0,0,1-2.23,1.16L29.49,217c0-.13.27-.4.48-.66-.85,1-.37-.12-1.15.8.17,0,0,.2.05.26A10.35,10.35,0,0,0,26.46,219l0-.28c-1.47,1-3,2.28-4.58,3.45.64-.34.72,0,.27.42l-.38-.12c-.19.38.56-.26.08.39-.62.41-.62,0-.34-.34l-.66.62c-.1,0,0-.21,0-.34-.18.38-1.46.65-1.68,1.25l-.1-.05c-1.61,1.17-2.28,1.79-3.58,2.76.14.24-.41.57-.67,1a36.37,36.37,0,0,0-3.37,2.09c-.73.7-.1.36-.37.76-.21-.16-1.35.7-.86.12l-1.85,1.4.71,2,.65,1.53c0-.25,0-.52.12-.42.16.37.17.89,0,.88l-.06-.09c1.12,2.21,1,5.6,2.15,7.29l-.06-.1.89,1.84c.24.9-.36-.47-.3.23,1.08,1.95,1,3.3,1.83,4.92-.28,1.56,1.58,4.68,1.7,6.61l.14-.16c.31.41.08.59.15.94.12-.09,0-.55.18-.29,1.47,3.84,2.37,8.14,3.52,12.2.43,1.48,1.14.55,1.34,2.53l-.48-.43c1.33,2.84,1.95,6.05,3.21,8.84-.13-.15-.23-.12-.32-.4a3.91,3.91,0,0,0,.92,2.21c.12.46-.14.16-.14.47.06.66.79,1.44.67,1.84,0,.07-.13-.15-.19-.25a1.46,1.46,0,0,1,.16.35l.29.85A4.69,4.69,0,0,0,26,286.7c.06,0,.07,0,0-.05s0,0,0-.12l0,.07c.47,0,.95,0,1.43,0h.66l.38,0a6.32,6.32,0,0,1,1.45,0c.59-.31,2,.15,2.14-.28-.08.45,2,.36,2.73.15-.25.13.62.14.34.33.82,0,1.58-.09,1.44-.32,1.51.54,3-.44,3.9.25,2.45-.24,4.72-.4,6.92-.51-.08.45-2.44.05-2.34.52a33.68,33.68,0,0,1,5.37-.47c.53.07-.31.2-.49.28,2.09-.19,4,0,5.89-.21,0,0-.2.09-.39.13.36,0,.85.06.81-.14l-.36.05c-.58-.3,1.45-.62,1.52-.78-.62.59,1.83.15.85.89.24,0,.54-.13.49-.27.35,0,.47.12.1.28,1.31-.12.85-.33,2-.33,0,.1-.25.14-.37.26a5,5,0,0,1,2.21-.31c-.06.06.06.14-.24.14,1.72,0,2.93-.52,4.83-.33-.56.43.64.14.74.52l1-.12-.41-.18a19.43,19.43,0,0,1,2.44-.14l-.66.15,1.67-.07-.94-.14c.9-.19-.1-.47,1.08-.37a8.85,8.85,0,0,1,1.36.23h0a3.38,3.38,0,0,1,1.55-.15c.17.12-.14.41,0,.49.44-.31,2.09-.09,2.64-.42-.18.08-.19.27-.13.31l.36-.25c.42.08.48.12.41.28,1.24,0-.4-.48,1.08-.27-.12,0-.06.06-.3.09a14.62,14.62,0,0,0,1.62,0l.9,0,1,0a13,13,0,0,1,.44-1.24c.52-.39-.43,1.61,0,1.23l.31-1.11.11-.42.09-.37.33-1.48a22,22,0,0,1,.8-2.85l-.15.32c-.42-.41.69-1.26.75-2.25,0,.24.18.38.14.31a33,33,0,0,0,1.15-4.49l0,.27c.36-.69.69-1.9,1-2.66-.06-.28.11-.72-.17-.51,1.53-2.19,1.11-4.75,2.43-6.71-.09.26-.09.65,0,.45l.47-1.87c-.26.07-.21.19-.5.52a2.93,2.93,0,0,1,.16-1.27c-.13.87.35.1.59-.21-.09,0-.12-.11-.2-.1.7-.83-.39-.31.3-1.53L91,260a7.66,7.66,0,0,1,.3-1.53c.32-.13,0,.56.15.66.22-.74,0-1.62.46-2.2,0,.33-.18.79-.21,1.12a3.06,3.06,0,0,0,.71-1.27l0,.05.54-1.21-.18.3c-.36-1.15.49-1.93.46-3.32,0,1.35.17.28.43.46.19-.29.43-.74.47-.58,0-.67.5-.93.43-1.87.11,0,.22-.63.41-.42.17-.79-.22.13-.32,0,.07-1.29,1.29-2.66,1.41-4.5.3-1.53.07-1.9.36-3.31.3-.42.21.48.21.48a5.76,5.76,0,0,0,.66-2c0,.16.15,0,.32-.14.16-.57-.21-.48.16-1.18a1.73,1.73,0,0,1,.19.68c.13-.69.17-1.4.31-2.11.22-.13.11.5.14.77a6.33,6.33,0,0,0,.32-2.36l-.25.46c.08-.28.27-.07.25.15,0,.73-.4.92-.51.93l.1-.5c-.7.32-.55,2-.9,3l-.26-.54v1.12c-.17.18-.44.25-.34-.25-.43.64-.06.67-.48,1.2-.05,0-.06,0-.06-.05l-.1.73c0-.16-.32,0-.13-.38-.62,1.16-.34,2.08-.8,2.45v-.11c-.42,1.75.24.26.16,1.65l-1,.63.23.27c-.06.17-.2.51-.29.41,0,.72.16-.07.22.37-.54.76-.64,2.38-1.16,2.42.12.38.43-.75.29.2-.58.1-.25,1.08-.73,1.78-.18-.32.19-1-.29-.31.28.61-.59,1.48-.72,2.16.34.15-.31,1.47-.56,2.61a29.6,29.6,0,0,0-1.31,3l0,0c.28.31-.13,1.34-.3,2.13-.2-.1-.24-.26-.2-.71l-.23.72a1.91,1.91,0,0,1-.07.94l-.2-.27a17.59,17.59,0,0,1-.9,3.21c.22.15,1-.76.74.6-.15,0-.39,0-.33-.38a1.81,1.81,0,0,1-.15.64l-.06-.59c-.28.53.09.35-.07.8-.19-.07-.25.29-.37.17s.2-.36.18-.56a3.89,3.89,0,0,1-.71,1.23c.12,0,.25.08.15.46-.3,1-.33.26-.61.79.06.27-.28.84,0,1-.1.28-.24.29-.35.37,0,.54-.72,2.33-.24,1.87l.06-.12,0,.08h0c-.25,1.72-1.25,3.34-1.66,5l-.09,0a22.85,22.85,0,0,0-.66,2.92c-.09.29-.39.62-.46.46a5.39,5.39,0,0,1-.59,1.89c.07-.79-.23.21.12-.79a5.17,5.17,0,0,0-.69,2.21c-.06-.22-.2-.06-.32.2a.8.8,0,0,0-.13.42,1.65,1.65,0,0,0,.26-.23,3.67,3.67,0,0,1-.16.53l-.33,0a1,1,0,0,0,0-.34,1.07,1.07,0,0,0-.29-.08H81l-.36,0c-.47,0-.92.11-1.35.18a4.27,4.27,0,0,1-2.46-.1c-.55.24,1.12.17.63.44a15.06,15.06,0,0,1-2.23-.52c-1.3-.19-1.22.48-2.58.36.18.12.34.43-.67.54-1,0-1.17-.49-.57-.59.23,0,.34,0,.33.07.3,0,.71-.09.33-.22l-.12.12c-.47-.13-1.78-.11-1.47-.31-.72.12-.31.2.22.26-1.22-.17-1.9,0-3.15-.12.19.06.38.2.18.2-1.84-.15-.81.23-2.05.28-.71-.18.25-.43-1-.28-.77-.12-.17-.32.14-.41a8.23,8.23,0,0,1-2.79-.2l.6-.09a5.31,5.31,0,0,1-.95.05l.34.24c-.35,0-.65,0-.64-.14-.37.16.27.39-.45.61-.47-.12-1.43.13-1.6-.19,1.49.11-.16-.31,1.1-.37a3.36,3.36,0,0,1-.9,0c-.05,0,0-.07.15-.08-1.42-.29-.65.35-2.12.34.19-.17-.34-.33-.58-.29.59,0,.28.29-.26.43-.94-.14-1,.1-1.52.08l.57.07c-.19.18-.67.15-1.32.21-.06-.14.59-.1.36-.16-.73.32-1.65-.32-2.66-.11-.47-.12,0-.33-.46-.41-1.14.23-1.24-.25-2.43-.06.34.24.4.18-.44.42l2-.17-1.27.34c.6,0,1.26-.15,1.61-.11-.6.2-.54.14-.25.34-.82-.36-1.61.21-2.55,0l0-.6c-1.41-.26-2.51.31-4.34.16l.59.1c-.25.24-1.13,0-1.73.13.06-.2-.31-.27-.57-.39,0,.14-1.34,0-1.51.38l-.82-.26c-1.48-.11-1.69.56-3.11.49.43-.21-.22-.35.74-.5-.48,0-.91,0-.92.09-.27-.12-1.31.27-1.75.08-.2.09-.27.3-.8.28-.06,0,0-.1,0-.1s-.83.14-.37.35c-1.46-.61-4.09.05-5.37-.48l-.34,0-.21,0-.46,0c-.14-.33-.25-.6-.44-1.17.07,0,.09,0,.13.15-.23-1.3-.79-.59-1.05-2.06.07-.82.41.7.38.21.55-.4-.64-1.67-.59-2.73l.11.21c0-.79-.8-1.68-1.14-2.88,0,0,.07,0,.09,0a15.7,15.7,0,0,1-1.63-3.31c.35.27.29.47.47.17-.2-.49-.35.28-.75-.71,0-.38-.1-1.15.14-1.33l.32,1c.18-.6-.41-1.23-.52-1.76l.17,0c-.53-1.46-.91-1.36-1.39-2.95l-.06.2c-.65-.74,0-.79-.58-1.56l.29-.38c-.28-.54-1-1.88-1.42-2.88a16,16,0,0,1,1.41,2.33,8.37,8.37,0,0,0-.94-2.15,2,2,0,0,1,.31.72,7.44,7.44,0,0,1-1.32-2.59c.8,0-.77-3-.47-4-.91-1.9-1.17-4-2-6.29-.3,1-.24-.67-.77-.34a2.09,2.09,0,0,1-.25-.8l-.19-1.75c.05-.44.3.47.41.38-.34-1.2.09-.58,0-1.41-.16.23-.43-.31-.57-1l0,1c-.85-1.55,0-1.59-.83-3.15l.36.47c-.39-.82-1-3.16-1.76-3.85,0-.17.11-.42.27-.06-.59-2.07-2-4.39-2.2-6.07l.19.11c-.16-.36-.49-.59-.49-1.09.06,0,.18.07.15-.05A.71.71,0,0,1,11,233a.29.29,0,0,1,.15-.09.35.35,0,0,0,.07.15,1.13,1.13,0,0,0,.18-.07l.05-.05.21-.17a10,10,0,0,0,.87-.84,19.35,19.35,0,0,1,1.7-1.68c.25.36,1.67-.5,2.38-.92v.06a56.65,56.65,0,0,0,4.87-4.2c1.42-.44,4-2.63,5.94-3.74-.32.14-.15-.31.15-.58.48-.24,1-1.11,1.17-.73l-.16.1c.56.09,1.38-.63,2.07-1.12l-.2-.51C32.72,218,35,215,36.4,214.83c.36-.42.89-.81,1.25-1.23l.14.25c1.24-.82,1.86-1.23,3.31-2.36l-.18.38c.84-.59.57-1.42,1.34-2l.48.17c1.46-1.06,3.15-1.84,4.37-3.2,0,.07,0,.2-.18.39.69-.49,2.83-1.71,2.23-2,.24.29,1.53-1.07,2.23-1.78l0,.32a4.22,4.22,0,0,1,1.29-1.62c.24-.14.32,0,0,.19.82-.41.42-.63,1.39-1.16l-.22.39c.43-.3.41-.31.48-.42s.08-.21.21-.43l.12-.12a2.24,2.24,0,0,1,.54.49c.15.19.37.47.34.58a1.55,1.55,0,0,1,1.12.47c0,.12-.19,0-.29,0,1.16,1.08,2.07,1.11,2.78,2a.26.26,0,0,0,0,.24c-1-.73-1.8-1.33-1.71-1.3-.15.21.63.84-.22.66a10.06,10.06,0,0,1,2.84,1.45.47.47,0,0,1,.06.15l-.1,0a1.47,1.47,0,0,0,.52.33,6.05,6.05,0,0,0,.61.54c0,.24.86.77,1.26,1.07.13-.25.64.17.28-.38,0,.07-.1,0-.38-.21a.85.85,0,0,0-.18-.1h0l-1-.72a2.07,2.07,0,0,1,1.16.72c.32,0,.66,0,.84,0,.32.72,1.26,1.67,1.27,2,1.32.77,3,2,4,2.17.4.2.32.41.4.57a4.2,4.2,0,0,0-.62-.3c.78.4,2.11,1.47,2.49,1.29.79.78-.7-.09.56.75l-.23,0c2,2.22,4.44,2.06,6.64,4.6-.15-.17-.23-.25-.23-.33,2.82,2.47,6.41,4.27,9.08,6.87a3.22,3.22,0,0,0,1.64.81v.38l1.09.36c1.4.7,1.73,2.18,3.61,2.94l-.09-.31c.55.44,1.88,1.21,1.65,1.33a.51.51,0,0,1,.47.21l-.08.14,1.56.8c1,.89-.54.39,1,1.56.63.38,2,.85,1.79.6s-.55-.52-.47-.66l.58.33c.37-.31,1.07-.39-.06-1.62l-1.09-.44-.17-.39.79.55a1.63,1.63,0,0,0-1.09-.67.84.84,0,0,0-.24-.48l-1.17-.3c0-.22.62,0,.07-.52-.55-.14.17.63-.62.23-.31-.49-.08-.54-.71-.77,0-.15.16-.13.39,0-.54-.21-1.25-.83-1.64-.8-.3-.55-1.59-1.08-1.29-1.4a4.91,4.91,0,0,1-1.45-.61c1.09.14-1.56-1.17-1-1.48-.85,0-2.19-1.33-3.36-1.86a.48.48,0,0,1,.31.12,7.26,7.26,0,0,1-.94-1c-.3.26-1.24-.31-1.86-.46-.48-.82.69-.07.69-.52-.16.28-1.41-.63-1.32-.24-.4-.58-.4-.43-.48-.89-.38.33-.55-.3-1.17-.37-.63-.76.07-.52-.87-1C80.81,217.22,81.67,217.63,81.67,217.63ZM61,203.62h0l.43.29Zm-1.7-1.23c.2.16.45.35.73.54,0,.13-.13.16-.29,0C59.82,203,59.45,202.64,59.25,202.39Zm2.44,4.19c-.29-.17-.35-.28-.35-.35l.49.32h.05A.36.36,0,0,1,61.69,206.58Z"/><path class="cls-1" d="M62.39,206.63l.13.06a1,1,0,0,0-.13-.16h-.14Z"/><path class="cls-1" d="M86.29,272.22l0,0,.06-.08Z"/><polygon class="cls-1" points="34.59 213.01 34.63 213.07 34.75 212.91 34.59 213.01"/><path class="cls-1" d="M90.78,261.52a.3.3,0,0,0,.11-.13A.58.58,0,0,0,90.78,261.52Z"/><path class="cls-1" d="M92.38,256.78l.32-.64C92.55,256.42,92.45,256.62,92.38,256.78Z"/><path class="cls-1" d="M93.7,253.17a.35.35,0,0,0-.09-.11h0Z"/><path class="cls-1" d="M55.5,286.5h-.15C55,286.56,55.24,286.54,55.5,286.5Z"/><path class="cls-1" d="M73.68,285.84c-.2.05-.39.1-.59.13C73.42,286,73.67,286,73.68,285.84Z"/><path class="cls-1" d="M35.2,286.83Z"/><path class="cls-1" d="M72.25,286a2.62,2.62,0,0,0,.84,0A3.37,3.37,0,0,0,72.25,286Z"/><path class="cls-1" d="M99,237.38l.07-.18s0,0,0,0Z"/><path class="cls-1" d="M99,237.17l0-.21C99,237.05,99,237.13,99,237.17Z"/><path class="cls-1" d="M99.1,236.53,99,237A.68.68,0,0,0,99.1,236.53Z"/><path class="cls-1" d="M97.28,242.17l.07.09A.13.13,0,0,0,97.28,242.17Z"/><path class="cls-1" d="M96.83,243.65a7.18,7.18,0,0,0,.59-1.32l-.07-.07C97.42,242.54,96.77,243.27,96.83,243.65Z"/><path class="cls-1" d="M93.63,249.4l.48-1.21c-.17.18-.4.42-.25-.15C93.05,249.49,94.2,247.8,93.63,249.4Z"/><path class="cls-1" d="M92.24,253.17c.17-.68-.15,0-.2-.1C92,253.52,92,253.63,92.24,253.17Z"/><path class="cls-1" d="M83.27,280.77l-.22-.15C82.92,281.14,83.15,280.66,83.27,280.77Z"/><path class="cls-1" d="M81.7,286.1l.82.15a1.19,1.19,0,0,0,.22-.23Z"/><polygon class="cls-1" points="78.29 284.27 78.53 284.24 77.63 284.33 78.29 284.27"/><path class="cls-1" d="M29.55,284.36l.16.32C30.08,284.62,30.15,284.27,29.55,284.36Z"/><path class="cls-1" d="M21.93,267.67a1.5,1.5,0,0,0-.26-1.16A10.79,10.79,0,0,0,21.93,267.67Z"/><polygon class="cls-1" points="31.56 218.34 31.28 218.67 31.87 218.13 31.56 218.34"/></svg>